<?xml version="1.0" encoding="UTF-8" standalone="no"?>
<!-- Created with Inkscape (http://www.inkscape.org/) -->

<svg
   width="57.996758mm"
   height="58.024036mm"
   viewBox="0 0 57.996758 58.024037"
   version="1.1"
   id="svg395"
   inkscape:version="1.1 (c68e22c387, 2021-05-23)"
   sodipodi:docname="apiKnob.svg"
   xmlns:inkscape="http://www.inkscape.org/namespaces/inkscape"
   xmlns:sodipodi="http://sodipodi.sourceforge.net/DTD/sodipodi-0.dtd"
   xmlns="http://www.w3.org/2000/svg"
   xmlns:svg="http://www.w3.org/2000/svg">
  <sodipodi:namedview
     id="namedview397"
     pagecolor="#ffffff"
     bordercolor="#666666"
     borderopacity="1.0"
     inkscape:pageshadow="2"
     inkscape:pageopacity="0.0"
     inkscape:pagecheckerboard="0"
     inkscape:document-units="mm"
     showgrid="false"
     inkscape:zoom="1.4916699"
     inkscape:cx="85.474674"
     inkscape:cy="102.9048"
     inkscape:window-width="1440"
     inkscape:window-height="823"
     inkscape:window-x="-9"
     inkscape:window-y="-9"
     inkscape:window-maximized="1"
     inkscape:current-layer="layer2"
     width="32.99676mm"
     fit-margin-bottom="12.6"
     fit-margin-top="0"
     fit-margin-left="12.5"
     fit-margin-right="12.5" />
  <defs
     id="defs392" />
  <g
     inkscape:groupmode="layer"
     id="layer2"
     inkscape:label="Layer 2"
     style="display:inline">
    <ellipse
       style="fill:#0000ff;fill-opacity:1;stroke-width:0.369528"
       id="path1055"
       cx="105.19492"
       cy="155.12816"
       rx="28.734573"
       ry="29.089323"
       transform="translate(-76.105597,-126.03882)" />
  </g>
  <g
     inkscape:label="Layer 1"
     inkscape:groupmode="layer"
     id="layer1"
     transform="translate(-76.105598,-126.03882)"
     style="display:inline">
    <path
       d="m 106.96961,171.34973 c 1.1774,-0.24956 1.83086,-0.72271 2.31527,-1.67638 0.17167,-0.338 0.35186,-0.66243 0.4004,-0.72099 0.0486,-0.0585 0.63006,-0.36959 1.29226,-0.69122 2.26589,-1.10059 3.80642,-2.31246 5.60524,-4.40933 0.64909,-0.75666 0.64503,-2.95971 2.09354,-3.57214 l 0.28849,-0.65114 0.62167,-0.30665 c 1.19254,-0.58824 1.60092,-1.18581 1.92838,-2.82136 0.11464,-0.57264 0.1173,-2.57493 0.004,-3.16439 -0.22219,-1.1579 -0.27731,-1.38727 -0.35702,-1.48582 -0.0556,-0.0687 -0.0562,-0.10584 -0.002,-0.10584 0.0461,0 0.1055,-0.1611 0.1319,-0.358 0.0264,-0.19691 0.0832,-0.36976 0.12623,-0.3841 0.19836,-0.0661 -0.17511,-1.1331 -0.50193,-1.43394 -0.23479,-0.21611 -0.99544,-0.57076 -1.06818,-0.49805 -0.0272,0.0272 -0.008,0.0494 0.0423,0.0494 0.0504,0 -0.0385,0.13403 -0.19756,0.29786 -0.1591,0.16383 -0.28928,0.35026 -0.28928,0.41429 0,0.064 -0.0572,0.13832 -0.127,0.16513 -0.0699,0.0268 -0.127,0.10707 -0.127,0.1784 0,0.0713 -0.0372,0.12965 -0.0827,0.12965 -0.12477,0 -0.31752,-0.33134 -0.64645,-1.11128 -0.24327,-0.57681 -0.28074,-0.73977 -0.20724,-0.90109 0.13129,-0.28813 0.10961,-0.3397 -0.0481,-0.11451 -0.1041,0.14862 -0.15449,0.16984 -0.20588,0.0867 -0.0686,-0.11096 0.31887,-0.55816 0.44956,-0.5189 0.0349,0.0106 0.0635,-0.019 0.0635,-0.0656 0,-0.0466 -0.0762,-0.0847 -0.16934,-0.0847 -0.14391,0 -0.16933,-0.0564 -0.16933,-0.37599 0,-0.20681 -0.0381,-0.39955 -0.0847,-0.42834 -0.0466,-0.0288 -0.0847,-0.14759 -0.0847,-0.26401 0,-0.1164 -0.0364,-0.18915 -0.081,-0.16161 -0.0445,0.0275 -0.0595,0.10598 -0.0333,0.17431 0.0262,0.0684 0.006,0.12431 -0.046,0.12431 -0.0515,0 -0.0937,-0.0571 -0.0937,-0.127 0,-0.0699 -0.0527,-0.127 -0.11713,-0.127 -0.14961,0 -0.23841,-0.44161 -0.10797,-0.53694 0.0618,-0.0452 0.0433,-0.0541 -0.0501,-0.0241 -0.11255,0.0362 -0.14816,-8e-5 -0.14816,-0.15097 0,-0.10927 -0.0571,-0.24609 -0.127,-0.30406 -0.1488,-0.12351 -0.16911,-0.33867 -0.032,-0.33867 0.066,0 0.063,-0.0386 -0.01,-0.12607 -0.0575,-0.0693 -0.1387,-0.10499 -0.18035,-0.0793 -0.0417,0.0257 -0.14211,-0.0201 -0.22324,-0.10202 -0.13769,-0.13894 -0.13783,-0.14515 -0.002,-0.0938 0.19275,0.073 0.26713,-0.0599 0.10761,-0.1923 -0.0693,-0.0575 -0.12606,-0.15711 -0.12606,-0.22127 0,-0.0641 -0.0572,-0.11663 -0.127,-0.11663 -0.0699,0 -0.127,-0.0404 -0.127,-0.0897 0,-0.0493 -0.0422,-0.0636 -0.0937,-0.0317 -0.0663,0.041 -0.0623,0.0774 0.0137,0.1243 0.0844,0.0522 0.0794,0.0945 -0.0235,0.19733 -0.1181,0.11808 -0.13579,0.1065 -0.18076,-0.1184 -0.0274,-0.13711 -0.0287,-0.31639 -0.003,-0.39838 0.0426,-0.13526 0.035,-0.13454 -0.0813,0.007 -0.0734,0.0897 -0.17181,0.12973 -0.2301,0.0937 -0.0716,-0.0442 0.0157,-0.3737 0.10021,-0.21659 l 0.20201,-0.15367 -0.23168,-0.23331 c -0.18163,-0.18291 -0.25387,-0.21111 -0.33443,-0.13054 -0.18507,0.18505 -0.34658,0.12401 -0.28812,-0.10893 0.0292,-0.11642 0.0171,-0.21167 -0.0269,-0.21167 -0.044,0 -0.0924,-0.0625 -0.10746,-0.13885 -0.0162,-0.0825 -0.1274,-0.14946 -0.27369,-0.165 -0.13547,-0.0143 -0.26921,-0.0631 -0.29718,-0.10842 -0.028,-0.0453 -0.15369,-0.10811 -0.27937,-0.13965 -0.12568,-0.0315 -0.27284,-0.11075 -0.32702,-0.17605 -0.0542,-0.0653 -0.14691,-0.11869 -0.20609,-0.11869 -0.0592,0 -0.12949,-0.0571 -0.1563,-0.127 -0.0268,-0.0699 -0.12389,-0.127 -0.21573,-0.127 -0.0918,0 -0.19088,-0.0386 -0.22007,-0.0859 -0.0292,-0.0472 -0.21003,-0.16595 -0.40186,-0.26382 -0.19183,-0.0979 -0.40371,-0.23286 -0.47084,-0.30001 -0.0671,-0.0671 -0.17307,-0.10247 -0.23542,-0.0785 -0.0624,0.0238 -0.1344,0.01 -0.16011,-0.0321 -0.0847,-0.13706 -0.57002,-0.33881 -0.66748,-0.27748 -0.19033,0.11983 -0.68636,0.0669 -0.79983,-0.0853 -0.12818,-0.17195 -0.30533,-0.10872 -0.23186,0.0827 0.035,0.0913 0.0102,0.11296 -0.0867,0.0757 -0.091,-0.0349 -0.15042,0.004 -0.18017,0.11759 -0.0613,0.23458 -0.12087,0.21368 -0.35005,-0.12287 -0.28091,-0.41255 -0.42456,-1.0241 -1.03503,-4.40645 -0.0504,-0.2794 -0.12402,-0.67945 -0.16354,-0.889 -0.0395,-0.20955 -0.11267,-0.6096 -0.16256,-0.889 -0.0877,-0.49125 -0.2984,-1.5498 -0.42971,-2.15899 -0.0351,-0.16298 -0.14705,-0.69638 -0.24868,-1.18533 -0.35956,-1.72987 -0.72585,-2.69135 -0.98714,-2.59109 -0.0644,0.0247 -0.24535,-0.30334 -0.34353,-0.16483 l -0.22635,-0.20978 0.17034,-0.18932 c 0.0937,-0.10412 0.21865,-0.36877 0.2777,-0.5881 0.22302,-0.82843 -0.1143,-1.36107 -0.91848,-1.45029 -0.42781,-0.0475 -0.46995,-0.0349 -0.69581,0.20684 -0.24525,0.26255 -0.36773,0.65605 -0.31665,1.01731 0.0213,0.15061 0.082,0.20186 0.24018,0.20267 0.28482,10e-4 0.42334,-0.10973 0.42334,-0.33974 0,-0.36933 0.43566,-0.49865 0.5629,-0.16709 0.0281,0.0732 -0.0292,0.36817 -0.12728,0.65547 -0.1166,0.34146 -0.14962,0.55116 -0.0953,0.60544 0.0457,0.0457 0.083,0.1719 0.083,0.28049 0,0.1086 0.053,0.32444 0.11789,0.47963 0.13322,0.31885 0.0947,0.42483 -0.18617,0.51253 -0.14806,0.0462 -0.2424,0.0101 -0.39023,-0.14942 -0.10723,-0.1157 -0.26536,-0.22393 -0.35136,-0.2405 -0.086,-0.0166 -0.17882,-0.12516 -0.20624,-0.24134 -0.0648,-0.27469 -0.3976,-0.29392 -0.40774,-0.0224 l -0.0268,0.18884 -0.24827,-0.18356 -0.24829,-0.18356 -0.25098,0.24047 c -0.26175,0.25078 -0.60972,1.22176 -0.88097,2.4583 -0.0715,0.32597 -0.20804,0.94029 -0.30341,1.36517 -0.0954,0.42484 -0.1734,0.8891 -0.1734,1.03164 0,0.14255 -0.0373,0.35721 -0.0828,0.47704 -0.0455,0.1198 -0.1763,0.76047 -0.29055,1.42367 -0.82737,4.80288 -0.83754,4.84492 -1.27967,5.29098 -0.28707,0.28964 -0.415675,0.35983 -0.659134,0.35983 -0.16637,0 -0.32639,0.0387 -0.3556,0.086 -0.0292,0.0473 -0.193392,0.14973 -0.364831,0.22768 -0.333169,0.1515 -0.394841,0.16939 -0.63572,0.1846 -0.0851,0.005 -0.26898,0.12406 -0.40868,0.26376 -0.1397,0.1397 -0.269,0.254 -0.28733,0.254 -0.0903,0 -1.517531,1.12115 -2.12848,1.67209 -1.447319,1.30508 -2.563591,2.80776 -3.58362,4.82409 -0.35869,0.70906 -0.700339,1.34724 -0.759219,1.41817 -0.148212,0.17857 -0.30185,0.16134 -0.316691,-0.0355 -0.009,-0.12124 0.02511,-0.15031 0.130151,-0.11057 0.121939,0.0462 0.119788,0.031 -0.0149,-0.10478 -0.14357,-0.14475 -0.164229,-0.1465 -0.235061,-0.0198 -0.0427,0.0763 -0.127849,0.11951 -0.189187,0.096 -0.14383,-0.0552 -0.646002,0.38365 -0.646002,0.56452 0,0.0761 -0.130961,0.3098 -0.29102,0.51943 -0.663279,0.86868 -0.842569,1.39335 -0.98774,2.89057 -0.139639,1.44018 -0.005,2.89089 0.33642,3.63625 0.132371,0.28861 0.394409,0.69617 0.582322,0.90572 0.32621,0.3638 0.509799,0.48453 1.229518,0.80854 0.385321,0.17346 0.55425,0.40484 0.85788,1.17494 0.282281,0.71596 0.52329,1.15691 1.11401,2.03819 1.74158,2.59823 3.81227,4.45354 6.223351,5.57604 0.485968,0.22624 1.016003,0.47389 1.177833,0.55033 0.22134,0.10454 0.36393,0.27533 0.57548,0.68929 0.15469,0.30269 0.40821,0.70454 0.56341,0.89295 0.34717,0.42156 1.14559,0.85809 1.84878,1.01086 0.72235,0.15695 3.07015,0.16071 3.79956,0.006 z m -3.49901,-3.91509 c 0.0611,-0.0243 0.13415,-0.0214 0.16228,0.007 0.0281,0.0281 -0.0219,0.0481 -0.11112,0.0445 -0.0986,-0.004 -0.1187,-0.0241 -0.0512,-0.0512 z m -0.59795,-0.0829 c 0.0582,-0.0236 0.15345,-0.0236 0.21166,0 0.0582,0.0236 0.0106,0.0427 -0.10583,0.0427 -0.11642,0 -0.16404,-0.0193 -0.10583,-0.0427 z m -0.86784,-0.15396 c -1.5688,-3.66054 -7.348977,-4.02884 -8.635997,-7.56859 -0.225248,-0.61947 -0.397695,-0.9449 -0.497539,-0.74838 l -0.243551,-0.0498 0.18071,-0.13629 c 0.173268,-0.13068 0.17584,-0.15544 0.0628,-0.6011 -0.0649,-0.25567 -0.145261,-0.65532 -0.178691,-0.88816 -0.0334,-0.23283 -0.0824,-0.55668 -0.108779,-0.71966 -0.0953,-0.58812 -0.038,-2.67449 0.0942,-3.429 0.30125,-1.71985 0.940859,-3.31211 1.944669,-4.84119 0.485572,-0.73964 2.142472,-2.43946 2.87369,-2.94815 0.267751,-0.18626 0.591601,-0.42608 0.71967,-0.53292 0.834641,-0.69633 3.274948,-1.67619 4.677828,-1.87828 1.34646,-0.19396 3.80368,-0.14949 4.20709,0.0762 0.0843,0.0471 0.41995,0.14197 0.74591,0.21077 0.90167,0.19023 1.3209,0.30935 1.70261,0.48371 0.19137,0.0874 0.38381,0.15891 0.42767,0.15891 0.0439,0 0.51592,0.25003 1.04905,0.5556 1.00272,0.57472 1.68603,1.0668 2.39925,1.7278 0.56009,0.51909 1.91442,2.10416 1.91442,2.24063 0,0.0604 0.0776,0.20838 0.17231,0.32887 0.21499,0.27329 0.97971,1.80055 1.05824,2.11342 0.032,0.12758 0.0921,0.25289 0.1335,0.27847 0.0414,0.0257 0.0753,0.1538 0.0753,0.2849 0,0.13108 0.0584,0.404 0.12989,0.60646 0.42236,1.1971 0.53605,3.96152 0.22253,5.41051 -0.1677,0.77502 -0.24077,1.011 -0.7267,2.34672 -0.55374,1.52215 -2.10635,3.58037 -3.60504,4.77904 -1.08018,0.86392 -3.0006,1.84211 -4.40266,2.24253 -1.4216,0.406 -3.90123,0.51639 -5.50334,0.24493 -0.80423,-0.13624 -1.02981,-0.19715 -2.18016,-0.58862 -0.714445,-0.24313 -0.819365,-0.14163 -0.16364,0.1583 0.53614,0.24524 1.68594,0.63844 1.8669,0.63844 0.0705,0 0.15178,0.0381 0.18057,0.0847 0.0643,0.10409 -0.3717,0.4749 -0.59267,-0.0407 z m -2.328326,-1.18007 c 0,-0.0831 -0.602339,-0.39875 -0.698661,-0.3661 -0.0581,0.0196 0.0467,0.11639 0.232989,0.21492 0.335402,0.1774 0.465672,0.21968 0.465672,0.15118 z m 15.917326,-22.57057 c 0,-0.0466 0.0381,-0.0847 0.0847,-0.0847 0.0466,0 0.0847,0.0381 0.0847,0.0847 0,0.0466 -0.0381,0.0847 -0.0847,0.0847 -0.0466,0 -0.0847,-0.0381 -0.0847,-0.0847 z m 2.87867,5.12731 c 0,-0.0206 -0.0381,-0.0609 -0.0847,-0.0897 -0.0466,-0.0288 -0.0847,-0.0119 -0.0847,0.0373 0,0.0493 0.0381,0.0897 0.0847,0.0897 0.0466,0 0.0847,-0.0167 0.0847,-0.0373 z"
       style="color:#000000;fill:#000000;stroke-width:0.0224014;-inkscape-stroke:none"
       id="path390" />
    <rect
       style="fill:#0000ff;fill-opacity:0;fill-rule:evenodd;stroke-width:0.264583"
       id="rect34"
       width="57.823883"
       height="58.356018"
       x="76.282974"
       y="125.86145" />
  </g>
</svg>
