<?xml version="1.0" encoding="UTF-8" standalone="no"?>
<!-- Created with Inkscape (http://www.inkscape.org/) -->

<svg
   version="1.1"
   id="svg9"
   width="289.33334"
   height="178.66667"
   viewBox="0 0 289.33334 178.66667"
   xmlns="http://www.w3.org/2000/svg"
   xmlns:svg="http://www.w3.org/2000/svg">
  <defs
     id="defs13" />
  <g
     id="g15"
     style="display:inline;opacity:1">
    <path
       style="fill:#000000;stroke-width:0.666667"
       d="m 21.815986,171.86667 c -1.307236,-1.30723 -0.916855,-4.17365 0.945209,-6.9403 2.294351,-3.40895 5.595782,-7.25588 16.242579,-18.92637 15.461565,-16.9482 21.919839,-26.16192 25.467505,-36.33333 2.081641,-5.96821 2.459135,-11.953921 0.937559,-14.866441 -2.294065,-4.391187 -8.508017,-8.023137 -16.836324,-9.840537 -6.268475,-1.3679 -23.487334,-2.06709 -25.42097,-1.03224 -1.459096,0.78088 -1.468847,0.90712 -1.462299,18.929338 0.0036,9.97877 0.295335,22.34321 0.648242,27.47655 0.352906,5.13333 0.72494,14.07987 0.82674,19.8812 0.171768,9.78855 0.09193,10.61641 -1.108994,11.5 -1.491992,1.09774 -1.728638,1.12872 -2.907922,0.38074 -1.265237,-0.80251 -1.797933,-5.64236 -4.486451,-40.76194 -1.333302,-17.41667 -2.50638,-31.749208 -2.60684,-31.850088 -0.10046,-0.10088 -1.599986,0.42412 -3.3322808,1.16666 -4.047419,1.73493 -6.158753,1.7402 -6.7057534,0.0168 -0.7108558,-2.2397 0.1863344,-3.67523 4.9342804,-7.89495 4.7746458,-4.24346 7.3990528,-8.52053 7.3990528,-12.05843 0,-1.08236 0.313193,-2.16149 0.695984,-2.39807 1.29126,-0.79804 3.795438,1.54163 4.2514,3.97211 0.24383,1.29973 0.955417,2.62585 1.581305,2.94694 0.625888,0.32109 5.337978,0.77606 10.471311,1.01104 15.747755,0.72086 27.649556,3.59346 34.545204,8.3378 3.430297,2.3601 6.903691,7.24478 7.531591,10.591767 1.99098,10.612831 -6.35282,29.873111 -20.718457,47.825131 -5.753697,7.19011 -20.943903,23.49709 -24.91945,26.75151 -3.763986,3.08123 -4.681274,3.40611 -5.972221,2.11516 z m 61.366668,-32.33715 -1.5,-0.28892 -6e-4,-15.45363 c -3.33e-4,-8.4995 -0.19974,-33.699118 -0.443133,-55.999158 l -0.442534,-40.54553 4.276467,0.459746 c 2.35206,0.25286 4.576467,0.737848 4.943133,1.077751 0.366667,0.339903 0.770627,3.453504 0.897687,6.919114 0.12706,3.46561 0.300853,6.301109 0.386207,6.301109 0.08535,0 2.52545,-1.350754 5.42244,-3.001675 15.015729,-8.557079 23.765569,-9.840374 36.868549,-5.407322 15.04468,5.089977 14.59396,13.595038 -1.3553,25.573787 -3.42077,2.56918 -12.96958,9.04159 -21.21958,14.38312 -8.25,5.34154 -16.025659,10.57523 -17.279249,11.63043 l -2.27924,1.91854 6.27924,3.37546 c 3.453589,1.85651 15.966329,8.216657 27.806099,14.133678 11.83977,5.91702 21.69394,11.19365 21.89817,11.72584 0.42154,1.09852 -1.99688,5.3612 -3.33242,5.8737 -1.07372,0.41202 -6.68644,-2.08424 -30.42594,-13.53196 C 91.892187,98.165749 89.747754,97.214409 88.955761,97.703889 c -0.34334,0.21219 -0.60644,9.468531 -0.60644,21.335461 V 140 l -1.833334,-0.0908 c -1.008333,-0.0499 -2.508333,-0.2208 -3.333333,-0.3797 z M 97.808031,72.922712 c 28.078419,-15.08822 37.748739,-22.68775 36.286009,-28.515739 -0.59509,-2.371018 -5.34077,-4.428821 -11.24318,-4.875219 -6.38695,-0.483044 -14.09708,1.413028 -22.16821,5.451597 -9.902663,4.955021 -9.434876,4.143811 -10.638909,18.449621 -1.132807,13.45956 -1.15614,13.90036 -0.735714,13.90036 0.160627,0 3.985624,-1.98478 8.500004,-4.41062 z M 159.06025,123.3748 c -1.22913,-0.77778 -1.72507,-9.69408 -2.70814,-48.688508 -0.41108,-16.30588 -1.03763,-32.954233 -1.39234,-36.996344 -0.58179,-6.629833 -0.53287,-7.431229 0.49973,-8.186286 1.31988,-0.965119 3.48359,-1.073949 4.79778,-0.241317 0.56379,0.357203 1.11665,2.690848 1.45851,6.156458 1.01062,10.245176 2.06344,41.328379 2.18247,64.434386 0.10135,19.674311 -0.0214,22.941751 -0.88227,23.489801 -1.25746,0.80049 -2.72238,0.81227 -3.95574,0.0318 z m 50.27428,-21.28885 c -5.91464,-2.686841 -8.22079,-6.599461 -23.76996,-40.328278 -13.56392,-29.422486 -16.54487,-36.324957 -16.1415,-37.376131 0.44587,-1.161913 4.18877,-2.038791 6.10561,-1.430409 1.34598,0.427199 2.97644,3.679276 22.50976,44.89756 5.4341,11.46677 10.1084,20.61677 10.38733,20.33333 0.51686,-0.52521 6.35388,-23.64879 15.58138,-61.726225 4.75893,-19.63778 5.26348,-21.26707 6.80322,-21.968624 1.31695,-0.60004 2.03174,-0.546517 3.43435,0.257161 1.4496,0.830604 1.73712,1.425177 1.58324,3.274062 -0.50357,6.050569 -19.70927,92.986264 -20.84459,94.354244 -1.047,1.26155 -2.39076,1.19335 -5.64884,-0.28669 z m 39.28073,-23.893798 c -1.28509,-0.2375 -1.43644,-0.84256 -1.83334,-7.32922 -0.23792,-3.88869 -0.44042,-11.44868 -0.45,-16.79997 -0.0229,-12.832072 -0.98549,-28.372352 -2.41289,-38.955845 -1.23841,-9.182262 -1.01842,-10.588404 1.72002,-10.994021 2.09065,-0.309667 3.96199,1.639002 4.81068,5.009474 0.3985,1.582587 0.84723,2.877431 0.99719,2.877431 0.14994,0 3.48933,-1.467038 7.42085,-3.260086 8.30549,-3.787878 14.31727,-5.7485445 19.68098,-6.4186955 7.55322,-0.943713 3.76492,1.8071525 -15.78267,11.4605535 l -11.91658,5.884895 0.42646,10 c 0.60916,14.283454 0.10668,13.500922 6.57946,10.246472 2.95086,-1.483667 7.9898,-4.321078 11.19762,-6.305358 6.24147,-3.860815 9.29628,-4.597752 9.29628,-2.242614 0,2.344796 -3.34434,4.825805 -17.8043,13.208184 -6.86028,3.97687 -6.86236,3.98152 -6.86236,15.26258 0,10.77723 0.23073,11.24295 4.56059,9.20515 1.34167,-0.63144 7.41159,-4.40503 13.48871,-8.38575 6.07712,-3.98073 11.77712,-7.42003 12.66667,-7.6429 0.9618,-0.24097 2.15779,-0.01 2.95069,0.57078 1.32014,0.96634 1.31684,0.9937 -0.33333,2.76492 -2.27785,2.44494 -24.57252,17.20946 -29.59863,19.60152 -4.38291,2.08596 -6.59694,2.65002 -8.8021,2.2425 z"
       id="path235" />
  </g>
</svg>
