<?xml version="1.0" encoding="UTF-8" standalone="no"?>
<svg
   xmlns:dc="http://purl.org/dc/elements/1.1/"
   xmlns:cc="http://creativecommons.org/ns#"
   xmlns:rdf="http://www.w3.org/1999/02/22-rdf-syntax-ns#"
   xmlns:svg="http://www.w3.org/2000/svg"
   xmlns="http://www.w3.org/2000/svg"
   id="svg3753"
   viewBox="0 0 249 1000"
   version="1.1">
  <metadata
     id="metadata3759">
    <rdf:RDF>
      <cc:Work
         rdf:about="">
        <dc:format>image/svg+xml</dc:format>
        <dc:type
           rdf:resource="http://purl.org/dc/dcmitype/StillImage" />
        <dc:title></dc:title>
      </cc:Work>
    </rdf:RDF>
  </metadata>
  <defs
     id="defs3757" />
  <g
     id="g3751"
     transform="matrix(1 0 0 -1 0 800)">
    <path
       id="path3749"
       d="M220 315v-231c0 -63 -32 -95 -96 -95c-63 0 -95 32 -95 95v229c0 40 18 66 55 78c-45 11 -55 32 -55 77v258c0 63 32 95 95 95c64 0 96 -32 96 -95v-256c0 -43 -20 -69 -60 -79c40 -8 60 -33 60 -76zM146 453v281c0 19 -7 28 -22 28c-14 0 -21 -9 -21 -28v-281 c0 -19 7 -29 21 -29c15 0 22 10 22 29zM146 81v246c0 20 -7 30 -22 30c-14 0 -21 -10 -21 -29v-249c0 -19 7 -28 21 -28c15 0 22 10 22 30z"
       fill="currentColor" />
  </g>
</svg>
