<?xml version="1.0" encoding="UTF-8" standalone="no"?>
<svg
   xml:space="preserve"
   style="enable-background:new 0 0 100.8 100.8;"
   viewBox="0 0 100.8 100.8"
   y="0px"
   x="0px"
   id="Layer_1"
   version="1.1"
   xmlns="http://www.w3.org/2000/svg"
   xmlns:svg="http://www.w3.org/2000/svg"
   xmlns:rdf="http://www.w3.org/1999/02/22-rdf-syntax-ns#"
   xmlns:cc="http://creativecommons.org/ns#"
   xmlns:dc="http://purl.org/dc/elements/1.1/"><metadata
   id="metadata4273"><rdf:RDF><cc:Work
       rdf:about=""><dc:format>image/svg+xml</dc:format><dc:type
         rdf:resource="http://purl.org/dc/dcmitype/StillImage" /></cc:Work></rdf:RDF></metadata><defs
   id="defs4271"><linearGradient
     id="linearGradient5659"><stop
       style="stop-color:#000000;stop-opacity:1;"
       offset="0"
       id="stop5657" /></linearGradient></defs>
<style
   id="style3994"
   type="text/css">
	.st0{fill:none;stroke:#000000;stroke-width:0.75;stroke-miterlimit:10;}
	.st1{font-family:'ArialMT';}
	.st2{font-size:7.004px;}
	.st3{font-size:6.98px;}
</style>












































































































































































<g
   id="layer15"
   style="display:inline"><path
     id="path16524"
     style="color:#000000;display:inline;fill:#000000;stroke-width:0;-inkscape-stroke:none"
     d="m 92.634428,53.34213 10e-7,-4.769999 c 0,-0.4725 0.24,-0.712503 0.72,-0.712501 0.4725,0 0.7125,0.24 0.7125,0.7125 l -10e-7,4.77 c 0,0.4725 -0.24,0.705 -0.7125,0.705 -0.479998,0 -0.72,-0.2325 -0.72,-0.705 z m 0.555002,-4.8 -2e-6,4.859999 c 0,0.135001 0.0525,0.202502 0.165001,0.202501 0.104998,-2e-6 0.157503,-0.0675 0.1575,-0.202499 l 2e-6,-4.860001 c -10e-7,-0.142499 -0.0525,-0.217501 -0.157502,-0.217498 -0.112502,-1e-6 -0.165003,0.075 -0.165005,0.217497 z m -3.626453,22.05801 -2.385,4.130941 c -0.23625,0.409197 -0.564096,0.497043 -0.979788,0.257043 -0.409197,-0.23625 -0.497043,-0.564096 -0.260793,-0.973293 l 2.385,-4.130941 c 0.23625,-0.409197 0.560346,-0.490548 0.969543,-0.254298 0.415692,0.24 0.507288,0.561351 0.271038,0.970548 z m -2.880644,3.879421 2.43,-4.208883 c 0.0675,-0.116913 0.05578,-0.20162 -0.04164,-0.25787 -0.09093,-0.0525 -0.170149,-0.02029 -0.237649,0.09662 l -2.43,4.208883 c -0.07125,0.123409 -0.06328,0.214611 0.02765,0.267111 0.09743,0.05625 0.180394,0.01755 0.251644,-0.105861 z m -2.295593,-7.795038 -3.07125,5.319561 -0.480644,-0.2775 2.625,-4.546634 -0.344245,-0.19875 0.2025,-0.35074 c 0.220836,0.1275 0.44623,0.06711 0.678927,-0.170937 z m 2.554587,1.47489 -3.07125,5.319561 -0.480644,-0.2775 2.625,-4.546633 -0.344245,-0.19875 0.2025,-0.350741 c 0.220836,0.1275 0.44623,0.06711 0.678928,-0.170937 z m -14.121499,16.57122 -4.130941,2.385 c -0.409197,0.23625 -0.737043,0.148404 -0.977043,-0.267288 -0.23625,-0.409197 -0.148404,-0.737043 0.260793,-0.973293 l 4.130941,-2.385 c 0.409197,-0.23625 0.730548,-0.144654 0.966798,0.264543 0.24,0.415692 0.158649,0.739788 -0.250548,0.976038 z m -4.434422,1.919356 4.208884,-2.43 c 0.116914,-0.0675 0.149126,-0.146713 0.09287,-0.244142 -0.0525,-0.09093 -0.137204,-0.102655 -0.25412,-0.03515 l -4.208884,2.43 c -0.123408,0.07125 -0.162116,0.154213 -0.10961,0.245149 0.05625,0.09743 0.147451,0.105396 0.270861,0.03414 z m 5.99962,0.79163 -4.130941,2.385 c -0.409197,0.23625 -0.737043,0.148404 -0.977043,-0.267288 -0.23625,-0.409197 -0.148404,-0.737043 0.260793,-0.973293 l 4.130941,-2.385 c 0.409197,-0.23625 0.730548,-0.144654 0.966798,0.264543 0.24,0.415692 0.158649,0.739788 -0.250548,0.976038 z m -4.434421,1.919357 4.208883,-2.430001 c 0.116914,-0.0675 0.149126,-0.146713 0.09287,-0.244146 -0.0525,-0.09093 -0.137208,-0.102646 -0.25412,-0.03515 l -4.208883,2.43 c -0.123409,0.07125 -0.162116,0.154213 -0.109618,0.245144 0.05625,0.09743 0.14745,0.105396 0.27086,0.03414 z m 1.945707,-7.698944 -5.319561,3.07125 -0.277501,-0.480645 4.546634,-2.625 -0.198749,-0.344244 0.35074,-0.202501 c 0.1275,0.220837 0.352897,0.281226 0.673437,0.191428 z M 52.916964,94.154614 h -4.770001 c -0.472499,0 -0.712501,-0.239999 -0.7125,-0.72 0,-0.472499 0.240001,-0.712498 0.712501,-0.712498 l 4.769999,-10e-7 c 0.4725,0 0.705001,0.240001 0.705,0.7125 0,0.48 -0.2325,0.72 -0.704999,0.719999 z m -4.800001,-0.554999 h 4.86 c 0.135001,0 0.2025,-0.0525 0.2025,-0.165002 0,-0.104998 -0.0675,-0.157501 -0.202499,-0.157501 h -4.86 c -0.1425,0 -0.217501,0.0525 -0.217498,0.157503 -10e-7,0.112503 0.075,0.165002 0.217497,0.165005 z m 4.799491,-2.514967 h -4.7775 c -0.4725,0 -0.712498,-0.240001 -0.712498,-0.72 0,-0.4725 0.239998,-0.712501 0.712498,-0.712501 h 1.6275 v 0.555 h -1.650002 c -0.149999,0 -0.225,0.0525 -0.224997,0.157503 -10e-7,0.112501 0.075,0.165002 0.224997,0.165004 h 2.085 c -0.112497,-0.1125 -0.165002,-0.239998 -0.165002,-0.397499 0,-0.299999 0.232498,-0.48 0.525001,-0.479999 l 2.354999,-2e-6 c 0.472499,0 0.712501,0.240003 0.712501,0.712502 0,0.48 -0.240002,0.720001 -0.712501,0.720001 z m -2.174999,-0.555001 h 2.205 c 0.142499,0 0.209999,-0.0525 0.209996,-0.165004 -10e-7,-0.104998 -0.0675,-0.157502 -0.21,-0.157502 H 50.73395 c -0.134999,0 -0.2025,0.0525 -0.2025,0.157502 -10e-7,0.112502 0.0675,0.165 0.209997,0.165005 z M 30.401561,89.737415 26.270619,87.352414 c -0.409197,-0.23625 -0.497043,-0.564096 -0.257042,-0.979787 0.23625,-0.409197 0.564094,-0.497043 0.973291,-0.260793 l 4.130942,2.385 c 0.409197,0.23625 0.490547,0.560346 0.254299,0.969543 -0.24,0.415692 -0.561351,0.507288 -0.970548,0.271038 z m -3.879423,-2.880643 4.208884,2.43 c 0.116914,0.0675 0.201621,0.05578 0.25787,-0.04165 0.0525,-0.09093 0.02029,-0.17015 -0.09662,-0.237651 L 26.683389,86.57747 c -0.123408,-0.07125 -0.214611,-0.06328 -0.267112,0.02765 -0.05625,0.09743 -0.01755,0.180395 0.105859,0.251647 z m 2.648893,-1.235917 -1.500389,-0.86625 c -0.409197,-0.23625 -0.497043,-0.564096 -0.257043,-0.979788 0.23625,-0.409197 0.564096,-0.497043 0.973293,-0.260793 l 1.487399,0.85875 c 0.259807,0.15 0.361182,0.364413 0.300378,0.649734 0.240197,-0.251034 0.414085,-0.237254 0.706378,-0.06848 l 1.67576,0.967499 c 0.409197,0.23625 0.497043,0.564097 0.260793,0.973294 -0.24,0.415692 -0.567846,0.503538 -0.977043,0.267288 l -1.662769,-0.96 c -0.279293,-0.16125 -0.373168,-0.388654 -0.28812,-0.685962 -0.201961,0.229807 -0.439342,0.26596 -0.718634,0.104711 z m 1.173837,0.03686 1.825148,1.053749 c 0.123409,0.07125 0.208115,0.05954 0.264364,-0.0379 0.0525,-0.09093 0.02029,-0.17015 -0.103111,-0.2414 l -1.825149,-1.05375 c -0.123408,-0.07125 -0.21461,-0.06328 -0.267111,0.02765 -0.05625,0.09743 -0.01755,0.180396 0.105859,0.251646 z m -2.416211,-1.395 1.597817,0.9225 c 0.129904,0.075 0.221105,0.06704 0.277354,-0.0304 0.0525,-0.09093 0.0138,-0.1739 -0.109606,-0.24515 l -1.617303,-0.93375 c -0.123408,-0.07125 -0.208116,-0.05954 -0.260616,0.03139 -0.05625,0.09743 -0.01755,0.180395 0.112353,0.255396 z M 14.03408,74.916933 11.649079,70.785992 c -0.23625,-0.409197 -0.148404,-0.737043 0.267288,-0.977043 0.409197,-0.23625 0.737043,-0.148404 0.973293,0.260793 l 2.384999,4.130941 c 0.23625,0.409197 0.144654,0.730548 -0.264543,0.966798 -0.415692,0.239999 -0.739786,0.158649 -0.976036,-0.250548 z m -1.919356,-4.434422 2.429999,4.208884 c 0.0675,0.116913 0.146713,0.149125 0.244147,0.09287 0.09093,-0.0525 0.102656,-0.137205 0.03515,-0.254122 l -2.43,-4.208884 c -0.07125,-0.123408 -0.154214,-0.162116 -0.245144,-0.109618 -0.09743,0.05625 -0.105396,0.147452 -0.03415,0.270861 z m 4.51863,3.190911 -2.13727,-5.32186 0.51312,-0.29625 2.10205,5.350854 0.831384,-0.479998 0.228749,0.396205 -1.305533,0.75375 z m -9.9879671,-20.538906 1e-6,-4.77 c 0,-0.4725 0.240001,-0.712501 0.72,-0.712501 0.4725,0 0.712499,0.24 0.712499,0.7125 l -10e-7,4.77 c 0,0.4725 -0.239999,0.705 -0.712499,0.705 -0.48,1e-6 -0.72,-0.232499 -0.72,-0.704999 z m 0.555001,-4.800001 v 4.859997 c 0,0.135 0.0525,0.202501 0.165002,0.2025 0.104998,-10e-7 0.157501,-0.0675 0.157501,-0.2025 v -4.86 c 0,-0.142499 -0.0525,-0.2175 -0.157503,-0.217497 -0.112502,-2e-6 -0.165002,0.075 -0.165005,0.217496 z m 2.514969,2.25719 -2e-6,-2.1825 c 0,-0.4725 0.240002,-0.7125 0.7200011,-0.712501 0.4725,0 0.712499,0.240001 0.712499,0.712501 l 2e-6,4.7925 c 0,0.4725 -0.24,0.7125 -0.7125,0.7125 -0.48,0 -0.7200021,-0.240001 -0.7200021,-0.712501 l 1e-6,-1.732498 0.5624991,-10e-7 10e-7,1.785 c 0,0.15 0.0525,0.225 0.157497,0.225002 0.112502,10e-7 0.165002,-0.075 0.165005,-0.224997 v -2.302501 c -0.120006,0.112497 -0.255002,0.172497 -0.412503,0.172497 -0.2775011,10e-7 -0.4725011,-0.232499 -0.4725001,-0.5325 z m 0.5624991,-2.220001 -10e-7,2.07 c 10e-7,0.1425 0.0525,0.210001 0.157498,0.210003 0.112502,10e-7 0.165001,-0.0675 0.165005,-0.209998 l 10e-7,-2.069999 c 0,-0.142501 -0.0525,-0.210001 -0.165005,-0.209996 -0.104997,10e-7 -0.157501,0.0675 -0.157501,0.21 z m 0.711861,-17.253649 2.384999,-4.130941 c 0.23625,-0.409197 0.564098,-0.497042 0.979788,-0.257043 0.409197,0.23625 0.497044,0.564096 0.260794,0.973293 l -2.385,4.130942 c -0.23625,0.409197 -0.560347,0.490546 -0.969543,0.254297 -0.415693,-0.24 -0.507288,-0.561351 -0.271038,-0.970548 z m 2.880643,-3.879422 -2.43,4.208884 c -0.0675,0.116914 -0.05578,0.20162 0.04165,0.25787 0.09093,0.0525 0.17015,0.02029 0.23765,-0.09662 l 2.430001,-4.208883 c 0.07125,-0.123409 0.06329,-0.214612 -0.02765,-0.267111 -0.09743,-0.05625 -0.180396,-0.01755 -0.251645,0.105858 z m -0.694929,5.985719 0.224998,-0.389713 0.753443,0.435001 1.042499,-1.805664 c -0.190909,0.04566 -0.348067,0.03287 -0.484466,-0.04588 -0.227331,-0.131249 -0.242993,-0.374122 -0.03674,-0.731356 l 1.30125,-2.253831 c 0.22875,-0.396207 0.552846,-0.477558 0.962043,-0.241308 0.402702,0.2325 0.484053,0.556596 0.247803,0.965793 l -1.11,1.922577 -0.467655,-0.270001 1.12125,-1.942062 c 0.075,-0.129903 0.06704,-0.221106 -0.02389,-0.273605 -0.09743,-0.05625 -0.180396,-0.01755 -0.255396,0.112352 l -1.26375,2.18888 c -0.07125,0.123408 -0.06603,0.204365 0.01191,0.249365 0.04547,0.02625 0.103187,0.01627 0.189904,-0.02892 l 0.480645,0.277499 -1.466251,2.53962 z M 26.71732,13.758629 30.84826,11.37363 c 0.409197,-0.23625 0.737044,-0.148405 0.977043,0.267288 0.236251,0.409195 0.148405,0.737041 -0.260792,0.973291 L 27.43357,14.99921 c -0.409197,0.23625 -0.730549,0.144653 -0.966799,-0.264544 -0.239999,-0.415691 -0.158648,-0.739787 0.250549,-0.976037 z m 4.434421,-1.919357 -4.208882,2.430001 c -0.116913,0.0675 -0.149126,0.146714 -0.09287,0.244147 0.0525,0.09093 0.137209,0.102647 0.254119,0.03515 l 4.208883,-2.43 c 0.123409,-0.07125 0.162108,-0.154218 0.10961,-0.245149 -0.05625,-0.09743 -0.147453,-0.105396 -0.270861,-0.03415 z m 0.612945,2.441281 0.396207,-0.228749 0.11625,0.201351 0.792413,-0.4575 0.277501,0.480645 -0.792414,0.4575 0.450001,0.779424 -4.527148,2.613748 -0.240001,-0.415692 4.130942,-2.385001 -0.22125,-0.383216 -4.130942,2.385001 -0.26625,-0.461159 4.130941,-2.385001 z m 16.289065,-7.2886189 4.769999,-2e-6 c 0.4725,0 0.712499,0.240002 0.712501,0.720001 2e-6,0.4725 -0.24,0.7125 -0.7125,0.7125 l -4.770001,10e-7 c -0.4725,0 -0.704999,-0.240001 -0.704997,-0.7125 -2e-6,-0.480001 0.232498,-0.72 0.704998,-0.72 z m 4.800001,0.555 -4.860002,-10e-7 c -0.134998,10e-7 -0.2025,0.0525 -0.2025,0.1650021 1e-6,0.104998 0.0675,0.157502 0.202499,0.157501 l 4.86,1e-6 c 0.142499,-1e-6 0.217502,-0.0525 0.217503,-0.157497 10e-7,-0.112502 -0.075,-0.165003 -0.217497,-0.165005 z m -1.766186,2.5254579 h 1.762502 c 0.4725,0 0.712499,0.2325 0.712499,0.697499 0,0.4725 -0.24,0.712501 -0.7125,0.712501 h -1.7625 l -10e-7,-0.555 h 1.785 c 0.150002,1e-6 0.225001,-0.0525 0.225002,-0.157497 10e-7,-0.0975 -0.075,-0.150005 -0.224996,-0.150005 h -1.755001 c -0.142499,0 -0.240002,0.104998 -0.307501,0.3075 h -0.427499 c -0.0825,-0.2025 -0.187503,-0.307499 -0.322499,-0.3075 h -2.07 c -0.15,0 -0.225003,0.0525 -0.224999,0.150003 10e-7,0.104998 0.075,0.157501 0.225,0.157501 h 2.085001 l -2e-6,0.554999 h -2.04 c -0.4725,0 -0.7125,-0.239999 -0.7125,-0.712499 0,-0.465001 0.240001,-0.697499 0.712501,-0.697499 l 1.972501,-1e-6 c 0.344999,0 0.539999,0.135 0.577501,0.412495 0.0525,-0.322501 0.165005,-0.412497 0.5025,-0.412501 z m 17.691582,4.298513 c 0.236573,0.145245 0.650991,0.462452 1.219015,0.963605 0.267773,0.241202 0.957663,0.951279 2.343273,2.10633 l 0.405001,-0.701478 0.383217,0.22125 -0.712501,1.234087 -0.03248,-0.01875 c -0.129904,-0.075 -0.469125,-0.357452 -1.029649,-0.871598 L 69.778115,15.865646 C 69.142394,15.316747 68.69001,14.9603 68.410716,14.799049 l -0.266302,-0.15375 c -0.116914,-0.0675 -0.201621,-0.05578 -0.25787,0.04165 -0.0525,0.09093 -0.0203,0.170151 0.09662,0.237652 l 0.610549,0.352501 -0.277502,0.480642 -0.565081,-0.32625 c -0.409197,-0.23625 -0.493293,-0.57059 -0.249542,-0.992778 0.288751,-0.500129 0.452672,-0.544052 1.277562,-0.0678 z m 1.425795,-2.895853 4.130941,2.385 c 0.409197,0.23625 0.497045,0.564097 0.257044,0.979788 -0.23625,0.409197 -0.564096,0.497043 -0.973293,0.260793 l -4.130944,-2.385 c -0.409197,-0.23625 -0.490545,-0.560347 -0.254297,-0.969544 0.24,-0.415691 0.561352,-0.507287 0.970549,-0.271037 z m 3.879421,2.880642 -4.208884,-2.429999 c -0.116913,-0.0675 -0.201621,-0.05578 -0.257869,0.04165 -0.0525,0.09093 -0.02029,0.170151 0.09662,0.237651 l 4.208883,2.43 c 0.123408,0.07125 0.214612,0.06328 0.26711,-0.02765 0.05625,-0.09743 0.01755,-0.180397 -0.105865,-0.251644 z m 12.938645,12.614554 2.385,4.130942 c 0.23625,0.409197 0.1484,0.737043 -0.26729,0.977043 -0.4092,0.23625 -0.73704,0.148404 -0.97329,-0.260793 l -2.385,-4.130942 c -0.23625,-0.409197 -0.14466,-0.730547 0.26454,-0.966797 0.41569,-0.240001 0.73979,-0.158649 0.97604,0.250547 z m 1.91935,4.434422 -2.43,-4.208884 c -0.0675,-0.116914 -0.14671,-0.149122 -0.24414,-0.09287 -0.0909,0.0525 -0.10265,0.137207 -0.0352,0.25412 l 2.43,4.208884 c 0.0713,0.123409 0.15421,0.162113 0.24514,0.109615 0.0974,-0.05625 0.1054,-0.147453 0.0341,-0.270861 z m -4.90361,-3.481928 3.07125,5.319561 -0.48065,0.2775 -2.625,-4.546634 -0.34424,0.198749 -0.2025,-0.35074 c 0.22083,-0.127499 0.28123,-0.352892 0.19142,-0.673436 z m -69.542655,40.42882 c -0.04547,0.02625 -0.07227,0.06116 -0.07813,0.103516 -0.0059,0.04235 0.0092,0.09193 0.04297,0.150391 -0.03375,-0.05846 -0.04688,-0.108038 -0.04102,-0.150391 0.0059,-0.04235 0.03071,-0.07727 0.07617,-0.103516 z m 33.382712,32.312498 0.238281,-3.212895 -0.5,-0.03711 -0.236328,3.212895 z m 2.693359,-0.082 0.0078,-4.613287 -0.5,-0.0019 -0.0078,4.615237 z m 2.06836,-0.24219 0.5,-0.0137 -0.08594,-3.050786 -0.5,0.01367 z m -7.339844,-0.004 0.324219,-3.162112 -0.498047,-0.05078 -0.324219,3.162112 z m 9.910156,-0.22461 0.496094,-0.0547 -0.345703,-3.201171 -0.496094,0.05469 z m 2.605469,-0.10156 0.494141,-0.07617 -0.480469,-3.164062 -0.494141,0.07422 z m -15.033203,-0.302739 0.498047,-3.060547 -0.494141,-0.08203 -0.498047,3.0625 z m 17.65625,-0.01757 0.488281,-0.107422 -0.705078,-3.177735 -0.488281,0.107422 z M 40.201072,99.390562 40.921775,96.341734 40.435447,96.2265 39.714744,99.275328 Z m 22.75,-0.435546 0.482422,-0.128907 -1.208985,-4.507812 -0.482422,0.128906 z m -25.367188,-0.0293 1.16211,-4.410157 -0.484375,-0.126953 -1.160157,4.410156 z m -2.519531,-0.625 1.029297,-2.984375 -0.472656,-0.164063 -1.029297,2.984375 z m 30.361328,-0.216797 0.476563,-0.150391 -0.941407,-2.96875 -0.476562,0.150391 z M 32.605369,97.361262 33.859275,94.390559 33.398337,94.1972 32.146384,97.167903 Z m 35.210937,-0.193359 0.466797,-0.18164 -1.166016,-2.982422 -0.464843,0.18164 z m 2.425781,-0.791015 0.460938,-0.19336 -1.214844,-2.894531 -0.462891,0.193359 z m -40.041015,-0.04687 1.439453,-3.09375 -0.453125,-0.210938 -1.439453,3.09375 z m 42.568359,-0.90625 0.449219,-0.222657 -1.439453,-2.908203 -0.447266,0.220703 z m -44.787109,-0.251954 1.427734,-2.871093 -0.447266,-0.222657 -1.427734,2.873047 z m 46.984375,-1.125 0.433593,-0.251953 -2.314453,-3.992187 -0.433593,0.251953 z m -49.429688,-0.03711 2.300781,-3.984375 -0.433593,-0.25 -2.298828,3.984375 z m -2.308594,-1.201171 1.822266,-2.757813 -0.416016,-0.275391 -1.824218,2.757813 z m 53.898438,-0.279297 0.417969,-0.275391 -1.72461,-2.611328 -0.417968,0.27539 z m -55.869141,-1.310548 1.859375,-2.621093 -0.40625,-0.289063 -1.861328,2.621094 z m 57.941407,-0.257812 0.40625,-0.292969 -1.861329,-2.576172 -0.40625,0.292969 z m 2.199218,-1.380859 0.386719,-0.316407 -1.960937,-2.402343 -0.388672,0.316406 z m -62.101562,-0.166016 1.982422,-2.435547 -0.386719,-0.316406 -1.984375,2.435547 z m 64.261719,-1.353516 0.371093,-0.333984 -2.185547,-2.416016 -0.371093,0.333985 z m -66.324219,-0.28125 2.105469,-2.248047 -0.365235,-0.341796 -2.105469,2.248046 z M 85.33779,86.205076 85.689353,85.85156 82.392478,82.562498 82.038962,82.916013 Z M 15.267478,86.185546 18.46865,82.83789 18.107322,82.492187 14.90615,85.839843 Z m -1.964844,-1.80664 2.416016,-2.185547 -0.335938,-0.371094 -2.416015,2.185547 z m 73.685547,-0.220703 0.341797,-0.363282 -2.248047,-2.107421 -0.341797,0.365234 z m -75.271484,-1.839844 2.451172,-2.046875 -0.320313,-0.384766 -2.451172,2.048828 z m 76.93164,-0.199219 0.316406,-0.388672 -2.435546,-1.982422 -0.316407,0.388672 z m 1.777344,-1.859375 0.300781,-0.398437 -2.570312,-1.947266 -0.302735,0.398438 z m -80.064453,-0.207031 2.574219,-1.861328 -0.292969,-0.404297 -2.574219,1.861328 z m 81.636718,-1.886721 0.275391,-0.416015 -2.669922,-1.773438 -0.277343,0.416016 z M 8.7674779,77.998044 11.466697,76.322263 11.203025,75.898435 8.5038059,77.572263 Z M 45.279197,77.367185 v -0.5 z m 48.031249,-1.443359 0.25,-0.433594 -3.984374,-2.300781 -0.25,0.433593 z m -86.0781241,-0.07617 3.9921871,-2.3125 -0.251953,-0.433594 -3.9902341,2.314453 z m -1.40625,-2.179688 2.908203,-1.439453 -0.220703,-0.447265 -2.910157,1.4375 z m 88.6503901,-0.101562 0.232422,-0.44336 -2.841797,-1.484375 -0.232422,0.44336 z m -89.5410151,-2.367188 2.808593,-1.265625 -0.205078,-0.455078 -2.808593,1.263672 z m -0.800782,-2.419922 2.894532,-1.214843 -0.19336,-0.460938 -2.894531,1.214844 z m -1.041015,-2.427734 2.96875,-0.941406 -0.150391,-0.476563 -2.96875,0.941407 z m -0.892578,-2.46875 4.507812,-1.208984 -0.128906,-0.482422 -4.507813,1.207031 z M 1.4452119,61.375 4.6248999,60.669921 4.5155249,60.18164 1.3377899,60.888671 Z m -0.351562,-2.615235 3.164062,-0.482422 -0.07422,-0.49414 -3.166016,0.482422 z M 0.97060286,56.15625 4.1717749,55.810546 4.1190449,55.314453 0.91591986,55.660156 Z m -0.261719,-2.566407 3.10156304,-0.173828 -0.02734,-0.498047 -3.10351604,0.171875 z M 100.16982,51.091794 v -0.5 l -4.61328,-0.0078 -0.0019,0.5 z m -95.1113261,-0.0625 0.002,-0.5 -4.61522804,-0.0078 v 0.5 z m -1.482422,-2.46289 0.03711,-0.5 -3.21093604,-0.236328 -0.0371,0.498047 z m 93.2207031,-0.0078 3.101562,-0.171875 -0.02734,-0.498047 -3.101562,0.171875 z m -0.335938,-2.396484 3.201172,-0.345703 -0.05273,-0.496094 -3.203125,0.345703 z m -92.6074221,-0.08984 0.05078,-0.496094 -3.16211004,-0.324218 -0.05078,0.496093 z m 0.529297,-2.34375 0.08008,-0.492187 -3.0625,-0.498047 -0.08008,0.49414 z m 92.0117191,-0.03516 3.166015,-0.482422 -0.07617,-0.494141 -3.164063,0.482422 z M 4.6854469,41.371104 4.8006809,40.884776 1.7518529,40.164073 1.6366189,40.650401 Z M 96.0624,41.294919 99.242087,40.587888 99.132712,40.10156 95.954978,40.806638 Z m -1.972657,-1.960937 4.419922,-1.257813 -0.136719,-0.480468 -4.421875,1.257812 z m -87.4921871,-0.08984 0.128906,-0.482422 -4.496093,-1.210937 -0.13086,0.482422 z m 88.0644531,-2.699219 2.917969,-0.855468 -0.140625,-0.478516 -2.917969,0.855469 z m -88.9492191,-0.002 0.16211,-0.472656 -2.984375,-1.029297 -0.164063,0.472656 z m 88.0234381,-2.167968 2.982422,-1.164063 -0.181641,-0.464844 -2.982422,1.164063 z m -87.0429691,-0.150391 0.179688,-0.464844 -3.019532,-1.167969 -0.18164,0.466797 z m 1.09961,-2.134766 0.208984,-0.453125 -2.921875,-1.339843 -0.208984,0.453125 z m 85.2460931,-0.09175 2.808594,-1.263671 -0.205078,-0.457032 -2.808594,1.265625 z M 8.7186499,29.855466 8.9549779,29.41406 6.1346649,27.902341 5.8983369,28.341794 Z m 83.2968751,-0.07227 2.908203,-1.439453 -0.220703,-0.447266 -2.910157,1.4375 z m -2.410157,-1.408203 3.992188,-2.314454 -0.251953,-0.43164 -3.990235,2.3125 z m -78.603515,-0.08789 0.25,-0.433594 -3.9843751,-2.300781 -0.25,0.433594 z m 78.375,-2.708984 2.697265,-1.673829 -0.263672,-0.425781 -2.697265,1.675781 z m -78.400391,-0.07813 0.275391,-0.417969 -2.7578131,-1.822266 -0.27539,0.417969 z m 76.958985,-1.810547 2.576171,-1.861328 -0.292968,-0.404297 -2.576172,1.861328 z m -75.59961,-0.177735 0.302735,-0.396484 -2.484375,-1.896484 -0.3027351,0.396484 z m 1.712891,-1.783203 0.316406,-0.388672 -2.435547,-1.982422 -0.314453,0.388672 z m 72.679687,-0.136719 2.402344,-1.960937 -0.316406,-0.388672 -2.402344,1.962891 z m -71.232421,-1.802734 0.341796,-0.365234 -2.248046,-2.105469 -0.341797,0.363281 z m 69.699218,-0.134766 2.416016,-2.185546 -0.333985,-0.371094 -2.416015,2.185547 z m -2.728515,-0.666015 3.289062,-3.296875 -0.353516,-0.353516 -3.289062,3.296875 z m -64.369141,-0.125 0.355469,-0.351563 -3.210938,-3.240234 -0.353515,0.353516 z m 63.505859,-2.576172 2.107422,-2.248047 -0.365234,-0.341797 -2.107422,2.248047 z M 18.833884,16.166004 19.204978,15.83202 17.019431,13.416004 16.65029,13.749989 Z m 60.853516,-1.351562 1.982422,-2.435547 -0.386719,-0.314453 -1.984375,2.433593 z m -58.929688,-0.197266 0.382813,-0.320312 -2.046875,-2.453125 -0.384766,0.320312 z m 1.990235,-1.28125 0.40625,-0.292969 -1.861328,-2.576172 -0.40625,0.292969 z m 55.121093,-0.167969 1.859375,-2.621093 -0.408203,-0.289063 -1.859375,2.621094 z m -53.251953,-1.30664 0.427735,-0.25586 -1.587891,-2.65039 -0.427734,0.257812 z M 75.945212,11.70116 77.716697,9.029285 77.300681,8.753895 75.527244,11.42577 Z m -2.771484,0 2.300781,-3.984375 -0.433594,-0.25 -2.300781,3.984375 z M 27.49404,11.67382 27.925681,11.421867 25.611228,7.429679 25.179587,7.681632 Z M 71.613181,9.404288 73.076072,6.669913 72.634665,6.433585 71.171775,9.16796 Z M 28.798728,9.183585 29.245994,8.962882 27.808494,6.052726 27.361228,6.275382 Z M 69.390525,8.451163 70.732322,5.529288 70.277244,5.320304 68.9374,8.242179 Z M 31.09365,8.193351 31.550681,7.988273 30.285056,5.179679 29.828025,5.384757 Z M 33.460837,7.472648 33.927634,7.291007 32.761619,4.308585 32.296775,4.490226 Z M 67.179587,7.279288 68.382712,4.394523 67.921775,4.201163 66.71865,7.085929 Z M 38.353415,7.158195 38.835837,7.029288 37.628806,2.521476 37.146384,2.650382 Z M 62.179587,7.126945 63.390525,2.628898 62.908103,2.499992 61.697165,6.996085 Z M 35.566306,6.593742 36.046775,6.453117 35.154197,3.398429 34.673728,3.537101 Z M 64.956931,6.32421 65.988181,3.339835 65.515525,3.175773 64.484275,6.160148 Z M 50.497947,5.509757 50.507747,0.89452 h -0.5 l -0.0098,4.613284 z M 60.144431,5.249992 60.863181,2.201163 60.376853,2.085929 59.65615,5.134757 Z M 40.357322,5.072257 40.845603,4.964835 40.140525,1.787101 39.652244,1.894523 Z m 17.433593,-0.160156 0.498047,-3.0625 -0.49414,-0.08008 -0.496094,3.060547 z M 42.7499,4.707023 43.24404,4.632803 42.761619,1.46678 42.267478,1.54296 Z M 45.216697,4.621083 45.71279,4.566393 45.36904,1.36522 44.870994,1.41992 Z M 55.402244,4.439443 55.726462,1.27733 55.228415,1.22653 54.904197,4.388641 Z m -7.878907,-0.238282 0.5,-0.01367 -0.08594,-3.050781 -0.498047,0.0137 z m 5.4375,-0.138671 0.238282,-3.21289 -0.5,-0.0371 -0.236329,3.21289 z m 47.209073,46.780098 -4.614106,-0.0082 m 4.328459,-2.697073 -3.101668,0.172245 m 2.852613,-2.74089 -3.20165,0.345451 m 3.089228,-2.950714 -3.165066,0.482059 m 2.82944,-3.100711 -3.178482,0.705268 m 2.433017,-3.214099 -4.421278,1.257869 m 3.489231,-3.643516 -2.918653,0.855255 m 2.0366,-3.327507 -2.982062,1.165069 m 2.100004,-3.637298 -2.808851,1.265045 m 1.876808,-3.650703 -2.908858,1.43827 m -6.325301,-14.044227 -3.289244,3.297111 m 1.23758,-4.943512 -2.106219,2.248062 m 0.05456,-3.894485 -1.983032,2.434677 m 0.03136,-4.254288 -1.859823,2.621285 m -0.15525,-4.131089 -1.773207,2.67128 m 17.735573,14.28109 -3.991859,2.314095 m 2.463396,-4.466721 -2.699027,1.674858 m 1.120573,-3.74089 -2.575835,1.86148 m 1.183975,-4.05072 -2.402628,1.961479 m 0.874161,-4.114097 -2.416022,2.184684 M 75.257605,7.591939 72.957602,11.575658 M 72.855939,6.55174 71.392545,9.28642 M 70.504271,5.42497 69.164084,8.346227 M 68.152587,4.298162 66.949019,7.182828 M 65.75093,3.257963 64.720542,6.24265 M 63.14926,2.564191 61.938502,7.061292 M 60.620818,2.143606 59.900226,5.191678 M 58.042346,1.809636 57.544974,4.871107 M 55.477279,1.25245 55.153113,4.413923 M 52.948825,0.83185 52.711264,4.043355 M 37.386908,2.58592 38.594779,7.093801 m -3.680115,-3.625839 0.891853,3.055244 m -3.277496,-2.123192 1.165077,2.982048 m -3.637321,-2.099998 1.265068,2.808845 m -3.73732,-1.926796 1.438278,2.908844 M 50.256965,0.89432 50.248865,5.508413 M 47.688311,1.14334 47.773951,4.195012 M 45.119662,1.39239 45.465114,4.594053 m -2.950711,-3.089226 0.482044,3.165054 m -3.100692,-2.829422 0.705242,3.178459 m -15.205696,2.537056 2.314094,3.991852 m -4.46672,-2.463394 1.588264,2.649048 m -3.74089,-1.120598 1.861473,2.575836 m -4.050713,-1.18396 2.048073,2.452629 m -4.11409,-0.874168 2.184677,2.416023 m -3.954292,-0.550957 3.210518,3.239235 m -4.856926,-1.187568 2.248092,2.106209 m -3.894516,-0.05454 2.43467,1.983009 m -4.204254,-0.117942 2.484657,1.896408 m -4.1310881,0.155258 2.7578811,1.823196 m -8.9490431,12.500179 4.497131,1.210778 m -4.967697,1.404285 3.048073,0.720589 m -3.382057,1.857876 3.061485,0.497375 m -3.70525404,2.017685 3.16145304,0.324177 m -3.49543604,2.254295 3.21147004,0.237553 m 3.5486,-22.54633 3.9837031,2.300003 m -5.1105041,0.05167 2.821289,1.513382 m -3.861488,0.888275 2.921295,1.340202 m -4.134689,0.961472 3.021278,1.166984 m -3.974861,1.284676 2.984665,1.030388 M 0.44530586,50.77066 5.0593939,50.77876 M 0.69434186,53.339302 3.7960039,53.167053 M 0.94338086,55.907951 4.1450489,55.562504 m -3.089241,2.950706 3.165062,-0.482059 m -2.829422,3.100715 3.178459,-0.705261 m -2.433014,3.214104 4.507904,-1.207879 m -3.625847,3.680131 2.968651,-0.941861 m -1.950004,3.377495 2.895446,-1.215065 m -2.09999,3.637306 2.808853,-1.26506 m -1.926812,3.737305 2.908867,-1.43826 m 6.4619141,14.007619 3.202622,-3.347115 m -1.237564,4.943516 2.106216,-2.248074 m -0.05455,3.894499 1.983025,-2.43469 m -0.03136,4.254292 1.859802,-2.621266 m 0.105266,4.217673 1.823204,-2.757877 M 7.1069709,75.632303 11.098822,73.318204 m -2.4634011,4.466734 2.6990431,-1.674869 m -1.120575,3.740877 2.575844,-1.861468 m -1.234001,4.137316 2.452644,-2.048071 m -0.874176,4.114106 2.416016,-2.184678 m 9.77079,11.876531 2.29998,-3.983725 m 0.138283,5.16051 1.42678,-2.87128 m 0.788269,4.034679 1.440201,-3.094474 m 0.961472,4.134665 1.253586,-2.971271 m 1.198097,3.924875 1.030372,-2.984684 m 1.484677,3.628459 1.16077,-4.410508 m 1.454296,4.881077 0.720578,-3.048063 m 1.857883,3.382039 0.497372,-3.06147 m 2.017688,3.705259 0.324173,-3.161479 m 2.254284,3.495449 0.237576,-3.211477 m 15.324356,1.457435 -1.207893,-4.507879 m 3.680137,3.625837 -0.941856,-2.968661 m 3.327499,2.036601 -1.165073,-2.982036 m 3.587312,2.186589 -1.21507,-2.895437 m 3.737318,1.926785 -1.438269,-2.908834 m -21.234173,8.178647 0.0081,-4.61411 m 2.560557,4.36506 -0.08564,-3.05166 m 2.654282,2.80264 -0.345436,-3.201678 m 2.950702,3.089229 -0.482055,-3.165054 m 3.100704,2.829417 -0.705246,-3.178455 m 15.205689,-2.537055 -2.314095,-3.991856 m 12.644236,-3.900459 -3.297127,-3.289224 m 4.943526,1.237568 -2.248079,-2.106221 m 3.894485,0.05456 -2.434664,-1.983017 m 4.204296,0.117964 -2.571286,-1.946428 m 4.131097,-0.155249 -2.671287,-1.773214 m 5.128628,-2.840845 -2.842005,-1.484276 m -14.415084,20.53224 -1.724875,-2.612435 m 3.790894,1.033968 -1.861473,-2.575836 m 4.050714,1.183974 -1.961481,-2.402622 m 4.11409,0.874152 -2.184662,-2.416019 M 93.435649,75.706605 89.451947,73.406608 M 45.278636,77.11705 v 0" /></g></svg>
