<?xml version="1.0" encoding="UTF-8" standalone="no"?>
<svg
   xml:space="preserve"
   style="enable-background:new 0 0 100.8 100.8;"
   viewBox="0 0 100.8 100.8"
   y="0px"
   x="0px"
   id="Layer_1"
   version="1.1"
   xmlns="http://www.w3.org/2000/svg"
   xmlns:svg="http://www.w3.org/2000/svg"
   xmlns:rdf="http://www.w3.org/1999/02/22-rdf-syntax-ns#"
   xmlns:cc="http://creativecommons.org/ns#"
   xmlns:dc="http://purl.org/dc/elements/1.1/"><metadata
   id="metadata4273"><rdf:RDF><cc:Work
       rdf:about=""><dc:format>image/svg+xml</dc:format><dc:type
         rdf:resource="http://purl.org/dc/dcmitype/StillImage" /></cc:Work></rdf:RDF></metadata><defs
   id="defs4271"><linearGradient
     id="linearGradient5659"><stop
       style="stop-color:#000000;stop-opacity:1;"
       offset="0"
       id="stop5657" /></linearGradient></defs>
<style
   id="style3994"
   type="text/css">
	.st0{fill:none;stroke:#000000;stroke-width:0.75;stroke-miterlimit:10;}
	.st1{font-family:'ArialMT';}
	.st2{font-size:7.004px;}
	.st3{font-size:6.98px;}
</style>












































































































































































<g
   id="layer12"
   style="display:inline"><g
     id="line3996"
     class="st0"
     style="display:inline;fill:#000000;fill-opacity:1;stroke-width:0;stroke-miterlimit:10;stroke-dasharray:none" /><path
     id="path7687"
     style="color:#000000;display:inline;fill:#000000;stroke:#000000;stroke-width:0;stroke-miterlimit:4;stroke-dasharray:none;stroke-opacity:1"
     d="m 8.3651489,48.371124 -7e-7,4.769999 c 0,0.4725 -0.24,0.712503 -0.7200002,0.712501 -0.4725,0 -0.7125,-0.24 -0.7125,-0.7125 l 1.3e-6,-4.77 c 0,-0.4725 0.2399999,-0.705 0.7124999,-0.705 0.4799976,0 0.7199997,0.2325 0.7199997,0.705 z m -0.5550021,4.8 2e-6,-4.859999 c 3e-7,-0.135001 -0.052499,-0.202502 -0.1650008,-0.202501 -0.1049977,2e-6 -0.1575032,0.0675 -0.1575003,0.202499 l -1.6e-6,4.860001 c 3e-7,0.142499 0.052499,0.217501 0.1575021,0.217498 0.1125018,1e-6 0.165003,-0.075 0.1650048,-0.217497 z M 27.288178,86.240553 c 0.236573,0.145245 0.650991,0.462452 1.219015,0.963605 0.267773,0.241202 0.957663,0.951279 2.343273,2.10633 l 0.405001,-0.701478 0.383217,0.22125 -0.712501,1.234087 -0.03248,-0.01875 c -0.129904,-0.075 -0.469125,-0.357452 -1.029649,-0.871598 L 28.287145,87.735294 C 27.651424,87.186395 27.19904,86.829948 26.919746,86.668697 l -0.266302,-0.15375 c -0.116914,-0.0675 -0.201621,-0.05578 -0.25787,0.04165 -0.0525,0.09093 -0.0203,0.170151 0.09662,0.237652 l 0.610549,0.352501 -0.277502,0.480642 -0.565081,-0.32625 c -0.409197,-0.23625 -0.493293,-0.57059 -0.249542,-0.992778 0.288751,-0.500129 0.452672,-0.544052 1.277562,-0.0678 z m 1.425795,-2.895853 4.130941,2.385 c 0.409197,0.23625 0.497045,0.564097 0.257044,0.979788 -0.23625,0.409197 -0.564096,0.497043 -0.973293,0.260793 l -4.130944,-2.385 c -0.409197,-0.23625 -0.490545,-0.560347 -0.254297,-0.969544 0.24,-0.415691 0.561352,-0.507287 0.970549,-0.271037 z m 3.879421,2.880642 -4.208884,-2.429999 c -0.116913,-0.0675 -0.201621,-0.05578 -0.257869,0.04165 -0.0525,0.09093 -0.02029,0.170151 0.09662,0.237651 l 4.208883,2.43 c 0.123408,0.07125 0.214612,0.06328 0.26711,-0.02765 0.05625,-0.09743 0.01755,-0.180397 -0.105865,-0.251644 z m -18.074807,-18.193926 2.385002,4.130942 c 0.23625,0.409197 0.148403,0.737043 -0.267291,0.977043 -0.409197,0.23625 -0.737044,0.148404 -0.973294,-0.260793 l -2.384998,-4.130942 c -0.23625,-0.409197 -0.144654,-0.730547 0.264543,-0.966797 0.415691,-0.240001 0.739788,-0.158649 0.976038,0.250547 z m 1.919354,4.434422 -2.43,-4.208884 c -0.0675,-0.116914 -0.146716,-0.149122 -0.244146,-0.09287 -0.09093,0.0525 -0.102651,0.137207 -0.03515,0.25412 l 2.43,4.208884 c 0.07125,0.123409 0.154217,0.162113 0.245147,0.109615 0.09743,-0.05625 0.105398,-0.147453 0.03415,-0.270861 z m -4.903617,-3.481928 3.07125,5.319561 -0.480645,0.2775 -2.624998,-4.546634 -0.344246,0.198749 -0.2025,-0.35074 c 0.220838,-0.127499 0.281234,-0.352892 0.191428,-0.673436 z m 36.385362,20.790057 4.769999,-2e-6 c 0.4725,0 0.712499,0.240002 0.712501,0.720001 2e-6,0.4725 -0.24,0.7125 -0.7125,0.7125 l -4.770001,10e-7 c -0.4725,0 -0.704999,-0.240001 -0.704997,-0.7125 -2e-6,-0.480001 0.232498,-0.72 0.704998,-0.72 z m 4.800001,0.555 -4.860002,-1e-6 c -0.134998,1e-6 -0.2025,0.0525 -0.2025,0.165002 1e-6,0.104998 0.0675,0.157502 0.202499,0.157501 l 4.86,10e-7 c 0.142499,-10e-7 0.217502,-0.0525 0.217503,-0.157497 10e-7,-0.112502 -0.075,-0.165003 -0.217497,-0.165005 z m -1.766186,2.525457 h 1.762502 c 0.4725,0 0.712499,0.2325 0.712499,0.697499 0,0.4725 -0.24,0.712501 -0.7125,0.712501 h -1.7625 l -10e-7,-0.555 h 1.785 c 0.150002,10e-7 0.225001,-0.0525 0.225002,-0.157497 10e-7,-0.0975 -0.075,-0.150005 -0.224996,-0.150005 h -1.755001 c -0.142499,0 -0.240002,0.104998 -0.307501,0.3075 h -0.427499 c -0.0825,-0.2025 -0.187503,-0.307499 -0.322499,-0.3075 h -2.07 c -0.15,0 -0.225003,0.0525 -0.224999,0.150003 10e-7,0.104998 0.075,0.157501 0.225,0.157501 h 2.085001 l -2e-6,0.554999 h -2.04 c -0.4725,0 -0.7125,-0.239999 -0.7125,-0.712499 0,-0.465001 0.240001,-0.697499 0.712501,-0.697499 l 1.972501,-10e-7 c 0.344999,0 0.539999,0.135 0.577501,0.412495 0.0525,-0.322501 0.165005,-0.412497 0.5025,-0.412501 z m 16.798811,-7.134263 4.13094,-2.384999 c 0.409197,-0.23625 0.737044,-0.148405 0.977043,0.267288 0.236251,0.409195 0.148405,0.737041 -0.260792,0.973291 l -4.130941,2.385001 c -0.409197,0.23625 -0.730549,0.144653 -0.966799,-0.264544 -0.239999,-0.415691 -0.158648,-0.739787 0.250549,-0.976037 z m 4.434421,-1.919357 -4.208882,2.430001 c -0.116913,0.0675 -0.149126,0.146714 -0.09287,0.244147 0.0525,0.09093 0.137209,0.102647 0.254119,0.03515 l 4.208883,-2.43 c 0.123409,-0.07125 0.162108,-0.154218 0.10961,-0.245149 -0.05625,-0.09743 -0.147453,-0.105396 -0.270861,-0.03415 z m 0.612945,2.441281 0.396207,-0.228749 0.11625,0.201351 0.792413,-0.4575 0.277501,0.480645 -0.792414,0.4575 0.450001,0.779424 -4.527148,2.613748 -0.240001,-0.415692 4.130942,-2.385001 -0.22125,-0.383216 -4.130942,2.385001 -0.26625,-0.461159 4.130941,-2.385001 z M 82.914071,72.295557 85.29907,68.164616 c 0.23625,-0.409197 0.564098,-0.497042 0.979788,-0.257043 0.409197,0.23625 0.497044,0.564096 0.260794,0.973293 l -2.385,4.130942 c -0.23625,0.409197 -0.560347,0.490546 -0.969543,0.254297 -0.415693,-0.24 -0.507288,-0.561351 -0.271038,-0.970548 z m 2.880643,-3.879422 -2.43,4.208884 c -0.0675,0.116914 -0.05578,0.20162 0.04165,0.25787 0.09093,0.0525 0.17015,0.02029 0.23765,-0.09662 l 2.430001,-4.208883 c 0.07125,-0.123409 0.06329,-0.214612 -0.02765,-0.267111 -0.09743,-0.05625 -0.180396,-0.01755 -0.251645,0.105858 z m -0.694929,5.985719 0.224998,-0.389713 0.753443,0.435001 1.042499,-1.805664 c -0.190909,0.04566 -0.348067,0.03287 -0.484466,-0.04588 -0.227331,-0.131249 -0.242993,-0.374122 -0.03674,-0.731356 l 1.30125,-2.253831 c 0.22875,-0.396207 0.552846,-0.477558 0.962043,-0.241308 0.402702,0.2325 0.484053,0.556596 0.247803,0.965793 l -1.11,1.922577 -0.467655,-0.270001 1.12125,-1.942062 c 0.075,-0.129903 0.06704,-0.221106 -0.02389,-0.273605 -0.09743,-0.05625 -0.180396,-0.01755 -0.255396,0.112352 l -1.26375,2.18888 c -0.07125,0.123408 -0.06603,0.204365 0.01191,0.249365 0.04547,0.02625 0.103187,0.01627 0.189904,-0.02892 l 0.480645,0.277499 -1.466251,2.53962 z m 4.234723,-21.296714 10e-7,-4.77 c 0,-0.4725 0.240001,-0.712501 0.72,-0.712501 0.4725,0 0.712499,0.24 0.712499,0.7125 l -10e-7,4.77 c 0,0.4725 -0.239999,0.705 -0.712499,0.705 -0.48,10e-7 -0.72,-0.232499 -0.72,-0.704999 z m 0.555001,-4.800001 v 4.860001 c 0,0.135 0.0525,0.202501 0.165002,0.2025 0.104998,-1e-6 0.157501,-0.0675 0.157501,-0.2025 v -4.86 c 0,-0.142499 -0.0525,-0.2175 -0.157503,-0.217497 -0.112502,-2e-6 -0.165002,0.075 -0.165005,0.217496 z m 2.514969,2.25719 -2e-6,-2.1825 c 0,-0.4725 0.240002,-0.7125 0.720001,-0.712501 0.4725,0 0.712499,0.240001 0.712499,0.712501 l 2e-6,4.7925 c 0,0.4725 -0.24,0.7125 -0.7125,0.7125 -0.48,0 -0.720002,-0.240001 -0.720002,-0.712501 l 10e-7,-1.732498 0.562499,-10e-7 10e-7,1.785 c 0,0.15 0.0525,0.225 0.157497,0.225002 0.112502,10e-7 0.165002,-0.075 0.165005,-0.224997 v -2.302501 c -0.120006,0.112497 -0.255002,0.172497 -0.412503,0.172497 -0.277501,10e-7 -0.472501,-0.232499 -0.4725,-0.5325 z m 0.562499,-2.220001 -10e-7,2.07 c 10e-7,0.1425 0.0525,0.210001 0.157498,0.210003 0.112502,10e-7 0.165001,-0.0675 0.165005,-0.209998 l 10e-7,-2.069999 c 0,-0.142501 -0.0525,-0.210001 -0.165005,-0.209996 -0.104997,1e-6 -0.157501,0.0675 -0.157501,0.21 z M 85.284332,33.257273 82.899331,29.126332 c -0.23625,-0.409197 -0.148404,-0.737043 0.267288,-0.977043 0.409197,-0.23625 0.737043,-0.148404 0.973293,0.260793 l 2.384999,4.130941 c 0.23625,0.409197 0.144654,0.730548 -0.264543,0.966798 -0.415692,0.239999 -0.739786,0.158649 -0.976036,-0.250548 z m -1.919356,-4.434422 2.429999,4.208884 c 0.0675,0.116913 0.146713,0.149125 0.244147,0.09287 0.09093,-0.0525 0.102656,-0.137205 0.03515,-0.254122 l -2.43,-4.208884 c -0.07125,-0.123408 -0.154214,-0.162116 -0.245144,-0.109618 -0.09743,0.05625 -0.105396,0.147452 -0.03415,0.270861 z m 4.51863,3.190911 -2.13727,-5.32186 0.51312,-0.29625 2.10205,5.350854 0.831384,-0.479998 0.228749,0.396205 -1.305533,0.75375 z M 71.864925,18.095458 67.733983,15.710457 c -0.409197,-0.23625 -0.497043,-0.564096 -0.257042,-0.979787 0.23625,-0.409197 0.564094,-0.497043 0.973291,-0.260793 l 4.130942,2.385 c 0.409197,0.23625 0.490547,0.560346 0.254299,0.969543 -0.24,0.415692 -0.561351,0.507288 -0.970548,0.271038 z m -3.879423,-2.880643 4.208884,2.43 c 0.116914,0.0675 0.201621,0.05578 0.25787,-0.04165 0.0525,-0.09093 0.02029,-0.17015 -0.09662,-0.237651 l -4.208883,-2.430001 c -0.123408,-0.07125 -0.214611,-0.06328 -0.267112,0.02765 -0.05625,0.09743 -0.01755,0.180395 0.105859,0.251647 z m 2.648893,-1.235917 -1.500389,-0.86625 c -0.409197,-0.23625 -0.497043,-0.564096 -0.257043,-0.979788 0.23625,-0.409197 0.564096,-0.497043 0.973293,-0.260793 l 1.487399,0.85875 c 0.259807,0.15 0.361182,0.364413 0.300378,0.649734 0.240197,-0.251034 0.414085,-0.237254 0.706378,-0.06848 l 1.67576,0.967499 c 0.409197,0.23625 0.497043,0.564097 0.260793,0.973294 -0.24,0.415692 -0.567846,0.503538 -0.977043,0.267288 l -1.662769,-0.96 c -0.279293,-0.16125 -0.373168,-0.388654 -0.28812,-0.685962 -0.201961,0.229807 -0.439342,0.26596 -0.718634,0.104711 z m 1.173837,0.03686 1.825148,1.053749 c 0.123409,0.07125 0.208115,0.05954 0.264364,-0.0379 0.0525,-0.09093 0.02029,-0.17015 -0.103111,-0.2414 l -1.825149,-1.05375 c -0.123408,-0.07125 -0.21461,-0.06328 -0.267111,0.02765 -0.05625,0.09743 -0.01755,0.180396 0.105859,0.251646 z m -2.416211,-1.395 1.597817,0.9225 c 0.129904,0.075 0.221105,0.06704 0.277354,-0.0304 0.0525,-0.09093 0.0138,-0.1739 -0.109606,-0.24515 l -1.617303,-0.93375 c -0.123408,-0.07125 -0.208116,-0.05954 -0.260616,0.03139 -0.05625,0.09743 -0.01755,0.180395 0.112353,0.255396 z M 52.665677,11.690314 h -4.770001 c -0.4725,0 -0.7125,-0.24 -0.712499,-0.720001 0,-0.472498 0.24,-0.712498 0.7125,-0.712498 l 4.77,-1e-6 c 0.4725,0 0.705001,0.24 0.705,0.712499 0,0.480002 -0.2325,0.720001 -0.705,0.720001 z m -4.800001,-0.555 h 4.860001 c 0.135,1e-6 0.2025,-0.0525 0.2025,-0.165001 -10e-7,-0.104998 -0.0675,-0.157501 -0.202499,-0.157501 h -4.86 c -0.1425,0 -0.217501,0.0525 -0.217498,0.157503 -1e-6,0.112502 0.075,0.165002 0.217496,0.165005 z m 4.799491,-2.5149661 -4.7775,2e-7 c -0.4725,0 -0.712499,-0.2400008 -0.712499,-0.7200006 0,-0.4725 0.239999,-0.7125005 0.712499,-0.7125005 l 1.6275,-10e-8 v 0.5549999 l -1.650001,-10e-8 c -0.15,-1e-7 -0.225,0.0525 -0.224997,0.1575028 -10e-7,0.1125018 0.075,0.1650011 0.224997,0.1650046 h 2.085 c -0.112498,-0.1125009 -0.165003,-0.2399982 -0.165003,-0.397499 0,-0.2999995 0.232499,-0.4800003 0.525001,-0.4799995 l 2.354999,-1.3e-6 c 0.4725,0 0.712501,0.2400012 0.712501,0.7125012 0,0.4799998 -0.240001,0.7200015 -0.712501,0.7200015 z m -2.175,-0.5550012 h 2.205 c 0.1425,2e-7 0.210001,-0.052499 0.209996,-0.1650042 -1e-6,-0.1049977 -0.0675,-0.1575014 -0.21,-0.1575012 l -2.2125,10e-8 c -0.135,-3e-7 -0.202501,0.052498 -0.202501,0.1575018 -10e-7,0.1125018 0.0675,0.1649998 0.209997,0.1650048 z m -17.66873,7.6599033 -4.130941,2.385 c -0.409197,0.23625 -0.737043,0.148404 -0.977043,-0.267288 -0.23625,-0.409197 -0.148404,-0.737043 0.260793,-0.973293 l 4.130941,-2.385 c 0.409197,-0.23625 0.730548,-0.144654 0.966798,0.264543 0.24,0.415692 0.158649,0.739788 -0.250548,0.976038 z m -4.434422,1.919356 4.208884,-2.43 c 0.116914,-0.0675 0.149126,-0.146713 0.09287,-0.244142 -0.0525,-0.09093 -0.137204,-0.102655 -0.25412,-0.03515 l -4.208884,2.43 c -0.123408,0.07125 -0.162116,0.154213 -0.10961,0.245149 0.05625,0.09743 0.147451,0.105396 0.270861,0.03414 z m 5.99962,0.79163 -4.130941,2.385 c -0.409197,0.23625 -0.737043,0.148404 -0.977043,-0.267288 -0.23625,-0.409197 -0.148404,-0.737043 0.260793,-0.973293 l 4.130941,-2.385 c 0.409197,-0.23625 0.730548,-0.144654 0.966798,0.264543 0.24,0.415692 0.158649,0.739788 -0.250548,0.976038 z m -4.434421,1.919357 4.208883,-2.430001 c 0.116914,-0.0675 0.149126,-0.146713 0.09287,-0.244146 -0.0525,-0.09093 -0.137208,-0.102646 -0.25412,-0.03515 l -4.208883,2.43 c -0.123409,0.07125 -0.162116,0.154213 -0.109618,0.245144 0.05625,0.09743 0.14745,0.105396 0.27086,0.03414 z m 1.945707,-7.698944 -5.319561,3.07125 -0.277501,-0.480645 4.546634,-2.625 -0.198749,-0.344244 0.35074,-0.202501 c 0.1275,0.220837 0.352897,0.281226 0.673437,0.191428 z m -11.522114,18.053145 -2.385,4.130941 c -0.23625,0.409197 -0.564096,0.497043 -0.979788,0.257043 -0.409197,-0.23625 -0.497043,-0.564096 -0.260793,-0.973293 l 2.385,-4.130941 c 0.23625,-0.409197 0.560346,-0.490548 0.969543,-0.254298 0.415692,0.24 0.507288,0.561351 0.271038,0.970548 z m -2.880644,3.879421 2.43,-4.208883 c 0.0675,-0.116913 0.05578,-0.20162 -0.04164,-0.25787 -0.09093,-0.0525 -0.170149,-0.02029 -0.237649,0.09662 l -2.43,4.208883 c -0.07125,0.123409 -0.06328,0.214611 0.02765,0.267111 0.09743,0.05625 0.180394,0.01755 0.251644,-0.105861 z m -2.295593,-7.795038 -3.07125,5.319561 -0.480644,-0.2775 2.625,-4.546634 -0.344245,-0.19875 0.2025,-0.35074 c 0.220836,0.1275 0.44623,0.06711 0.678927,-0.170937 z m 2.554587,1.47489 -3.07125,5.319561 -0.480644,-0.2775 2.625,-4.546633 -0.344245,-0.19875 0.2025,-0.350741 c 0.220836,0.1275 0.44623,0.06711 0.678928,-0.170937 z M 52.65625,0.8125 l -0.238281,3.2128906 0.5,0.037109 0.236328,-3.21289062 z m -2.693359,0.0820313 -0.0078,4.6132812 0.5,0.00195 0.0078,-4.6152343 z m -2.06836,0.2421874 -0.5,0.013672 0.08594,3.0507813 0.5,-0.013672 z m 7.339844,0.00391 -0.324219,3.1621094 0.498047,0.050781 0.324219,-3.1621094 z m -9.910156,0.2246095 -0.496094,0.054687 0.345703,3.2011718 0.496094,-0.054687 z m -2.605469,0.1015625 -0.494141,0.076172 0.480469,3.1640625 0.494141,-0.074219 z m 15.033203,0.3027343 -0.498047,3.0605468 0.494141,0.082031 0.498047,-3.0625 z M 40.095703,1.7871094 39.607422,1.8945312 40.3125,5.0722656 40.800781,4.9648437 Z M 60.333984,2.0859375 59.613281,5.1347656 60.099609,5.25 60.820312,2.2011719 Z m -22.75,0.4355469 -0.482422,0.1289062 1.208985,4.5078125 0.482422,-0.1289062 z m 25.367188,0.029297 -1.16211,4.4101562 0.484375,0.1269531 1.160157,-4.4101562 z m 2.519531,0.625 -1.029297,2.9843749 0.472656,0.1640625 1.029297,-2.9843749 z M 35.109375,3.3925782 34.632812,3.5429689 35.574219,6.5117188 36.050781,6.3613282 Z M 67.929687,4.1152345 66.675781,7.0859376 67.136719,7.279297 68.388672,4.3085938 Z M 32.71875,4.3085937 32.251953,4.4902344 33.417969,7.4726562 33.882812,7.2910156 Z M 30.292969,5.0996094 29.832031,5.2929687 31.046875,8.1875 31.509766,7.9941406 Z m 40.041015,0.046875 -1.439453,3.09375 0.453125,0.2109375 1.439453,-3.09375 z m -42.568359,0.90625 -0.449219,0.2226562 1.439453,2.9082032 0.447266,-0.2207032 z M 72.552734,6.3046875 71.125,9.1757813 71.572266,9.3984375 73,6.5253906 Z m -46.984375,1.125 -0.433593,0.2519531 2.314453,3.9921874 0.433593,-0.251953 z m 49.429688,0.037109 -2.300781,3.9843755 0.433593,0.25 2.298828,-3.9843755 z m 2.308594,1.2011719 -1.822266,2.7578126 0.416016,0.275391 1.824218,-2.757813 z m -53.898438,0.2792968 -0.417969,0.2753907 1.72461,2.6113281 0.417968,-0.27539 z m 55.869141,1.3105478 -1.859375,2.621093 0.40625,0.289063 1.861328,-2.621094 z m -57.941407,0.257812 -0.40625,0.292969 1.861329,2.576172 0.40625,-0.292969 z m -2.199218,1.380859 -0.386719,0.316407 1.960937,2.402343 0.388672,-0.316406 z m 62.101562,0.166016 -1.982422,2.435547 0.386719,0.316406 1.984375,-2.435547 z M 16.976562,13.416016 16.605469,13.75 l 2.185547,2.416016 0.371093,-0.333985 z m 66.324219,0.28125 -2.105469,2.248047 0.365235,0.341796 2.105469,-2.248046 z m -68.103515,1.574218 -0.351563,0.353516 3.296875,3.289062 0.353516,-0.353515 z m 70.070312,0.01953 -3.201172,3.347656 0.361328,0.345703 3.201172,-3.347656 z m 1.964844,1.80664 -2.416016,2.185547 0.335938,0.371094 2.416015,-2.185547 z m -73.685547,0.220703 -0.341797,0.363282 2.248047,2.107421 0.341797,-0.365234 z m 75.271484,1.839844 -2.451172,2.046875 0.320313,0.384766 2.451172,-2.048828 z m -76.93164,0.199219 -0.316406,0.388672 2.435546,1.982422 0.316407,-0.388672 z m -1.777344,1.859375 -0.3007812,0.398437 2.5703122,1.947266 0.302735,-0.398438 z m 80.064453,0.207031 -2.574219,1.861328 0.292969,0.404297 2.574219,-1.861328 z M 8.5371094,23.310547 8.2617188,23.726562 10.931641,25.5 11.208984,25.083984 Z m 83.2304686,0.167969 -2.699219,1.675781 0.263672,0.423828 2.699219,-1.673828 z m -36.511719,0.630859 v 0.5 z m -48.0312496,1.443359 -0.25,0.433594 3.9843746,2.300781 0.25,-0.433593 z m 86.0781246,0.07617 -3.992187,2.3125 0.251953,0.433594 3.990234,-2.314453 z m 1.40625,2.179688 -2.908203,1.439453 0.220703,0.447265 2.910157,-1.4375 z m -88.6503903,0.101562 -0.2324218,0.44336 2.8417969,1.484375 0.2324218,-0.44336 z m 89.5410153,2.367188 -2.808593,1.265625 0.205078,0.455078 2.808593,-1.263672 z m 0.800782,2.419922 -2.894532,1.214843 0.19336,0.460938 2.894531,-1.214844 z m 1.041015,2.427734 -2.96875,0.941406 0.150391,0.476563 2.96875,-0.941407 z m 0.892578,2.46875 -4.507812,1.208984 0.128906,0.482422 4.507813,-1.207031 z m 0.75586,2.507812 -3.179688,0.705079 0.109375,0.488281 3.177735,-0.707031 z m 0.351562,2.615235 -3.164062,0.482422 0.07422,0.49414 3.166016,-0.482422 z m 0.123047,2.603515 -3.201172,0.345704 0.05273,0.496093 3.203125,-0.345703 z m 0.261719,2.566407 -3.101563,0.173828 0.02734,0.498047 3.103516,-0.171875 z M 0.36523438,50.384766 v 0.5 l 4.61328122,0.0078 0.00195,-0.5 z m 95.11132762,0.0625 -0.002,0.5 4.615228,0.0078 v -0.5 z m 1.482422,2.46289 -0.03711,0.5 3.210936,0.236328 0.0371,-0.498047 z m -93.2207027,0.0078 -3.10156255,0.171875 0.0273438,0.498047 3.10156245,-0.171875 z m 0.3359374,2.396484 -3.20117182,0.345703 0.0527344,0.496094 3.20312492,-0.345703 z m 92.6074223,0.08984 -0.05078,0.496094 3.16211,0.324218 0.05078,-0.496093 z m -0.529297,2.34375 -0.08008,0.492187 3.0625,0.498047 0.08008,-0.49414 z m -92.011719,0.03516 -3.16601562,0.482422 0.0761718,0.494141 3.1640625,-0.482422 z m 91.708984,2.322266 -0.115234,0.486328 3.048828,0.720703 0.115234,-0.486328 z M 4.4726562,60.181641 1.2929687,60.888672 1.4023437,61.375 4.5800781,60.669922 Z m 1.9726563,1.960937 -4.4199219,1.257813 0.1367188,0.480468 4.421875,-1.257812 z m 87.4921875,0.08984 -0.128906,0.482422 4.496093,1.210937 0.13086,-0.482422 z m -88.0644531,2.699219 -2.9179688,0.855468 0.140625,0.478516 2.9179688,-0.855469 z m 88.9492191,0.002 -0.16211,0.472656 2.984375,1.029297 0.164063,-0.472656 z m -88.0234379,2.167968 -2.9824218,1.164063 0.1816406,0.464844 2.9824218,-1.164063 z m 87.0429689,0.150391 -0.179688,0.464844 3.019532,1.167969 0.18164,-0.466797 z m -1.09961,2.134766 -0.208984,0.453125 2.921875,1.339843 0.208984,-0.453125 z M 7.4960937,69.478516 4.6875,70.742187 4.8925781,71.199219 7.7011719,69.933594 Z m 84.3203123,2.142578 -0.236328,0.441406 2.820313,1.511719 0.236328,-0.439453 z m -83.2968747,0.07227 -2.9082032,1.439453 0.2207031,0.447266 2.9101563,-1.4375 z m 2.4101567,1.408203 -3.992188,2.314454 0.2519531,0.43164 3.9902349,-2.3125 z m 78.603515,0.08789 -0.25,0.433594 3.984375,2.300781 0.25,-0.433594 z m -78.375,2.708984 -2.6972655,1.673829 0.2636719,0.425781 2.6972656,-1.675781 z m 78.400391,0.07813 -0.275391,0.417969 2.757813,1.822266 0.27539,-0.417969 z m -76.958985,1.810547 -2.576171,1.861328 0.292968,0.404297 2.576172,-1.861328 z m 75.59961,0.177735 -0.302735,0.396484 2.484375,1.896484 0.302735,-0.396484 z m -1.712891,1.783203 -0.316406,0.388672 2.435547,1.982422 0.314453,-0.388672 z m -72.679687,0.136719 -2.402344,1.960937 0.316406,0.388672 2.402344,-1.962891 z m 71.232421,1.802734 -0.341796,0.365234 2.248046,2.105469 0.341797,-0.363281 z m -69.699218,0.134766 -2.416016,2.185546 0.333985,0.371094 2.416015,-2.185547 z m 2.728515,0.666015 -3.289062,3.296875 0.353516,0.353516 3.289062,-3.296875 z m 64.369141,0.125 -0.355469,0.351563 3.210938,3.240234 0.353515,-0.353516 z m -63.505859,2.576172 -2.107422,2.248047 0.365234,0.341797 2.107422,-2.248047 z m 62.769531,0.121094 -0.371094,0.333984 2.185547,2.416016 0.369141,-0.333985 z m -60.853516,1.351562 -1.982422,2.435547 0.386719,0.314453 1.984375,-2.433593 z m 58.929688,0.197266 -0.382813,0.320312 2.046875,2.453125 0.384766,-0.320312 z m -1.990235,1.28125 -0.40625,0.292969 1.861328,2.576172 0.40625,-0.292969 z m -55.121093,0.167969 -1.859375,2.621093 0.408203,0.289063 1.859375,-2.621094 z m 53.251953,1.30664 -0.427735,0.25586 1.587891,2.65039 0.427734,-0.257812 z m -51.328125,0.160157 -1.771485,2.671875 0.416016,0.27539 1.773437,-2.671875 z m 2.771484,0 -2.300781,3.984375 0.433594,0.25 2.300781,-3.984375 z m 45.679688,0.02734 -0.431641,0.251953 2.314453,3.992188 0.431641,-0.251953 z m -44.119141,2.269532 -1.462891,2.734375 0.441407,0.236328 1.46289,-2.734375 z m 42.814453,0.220703 -0.447266,0.220703 1.4375,2.910156 0.447266,-0.222656 z m -40.591797,0.732422 -1.341797,2.921875 0.455078,0.208984 1.339844,-2.921875 z m 38.296875,0.257812 -0.457031,0.205078 1.265625,2.808594 0.457031,-0.205078 z m -2.367187,0.720703 -0.466797,0.181641 1.166015,2.982422 0.464844,-0.181641 z m -33.71875,0.19336 -1.203125,2.884765 0.460937,0.19336 1.203125,-2.884766 z m 28.826172,0.121093 -0.482422,0.128907 1.207031,4.507812 0.482422,-0.128906 z m -23.826172,0.03125 -1.210938,4.498047 0.482422,0.128906 1.210938,-4.496093 z m 26.613281,0.533203 -0.480469,0.140625 0.892578,3.054688 0.480469,-0.138672 z m -29.390625,0.269532 -1.03125,2.984375 0.472656,0.164062 1.03125,-2.984375 z m 14.458984,0.814453 -0.0098,4.615237 h 0.5 l 0.0098,-4.613284 z m -9.646484,0.259765 -0.71875,3.048829 0.486328,0.115234 0.720703,-3.048828 z m 19.787109,0.177735 -0.488281,0.107422 0.705078,3.177734 0.488281,-0.107422 z m -17.433593,0.160156 -0.498047,3.0625 0.49414,0.08008 0.496094,-3.060547 z m 15.041015,0.205078 -0.49414,0.07422 0.482421,3.166023 0.494141,-0.07618 z m -2.466797,0.08594 -0.496093,0.05469 0.34375,3.201173 0.498046,-0.0547 z m -10.185547,0.18164 -0.324218,3.162113 0.498047,0.0508 0.324218,-3.162111 z m 7.878907,0.238282 -0.5,0.01367 0.08594,3.050781 0.498047,-0.0137 z m -5.4375,0.138671 -0.238282,3.21289 0.5,0.0371 0.236329,-3.21289 z M 0.36514533,50.633972 4.9792523,50.642172 M 0.6507926,53.339245 3.7524605,53.167 M 0.89984816,55.90789 4.1014981,55.562439 m -3.0892282,2.950714 3.1650658,-0.482059 m -2.8294395,3.100711 3.1784815,-0.705268 m -2.433017,3.214099 4.4212782,-1.257869 m -3.4892313,3.643516 2.9186537,-0.855255 m -2.0366001,3.327507 2.9820614,-1.165069 m -2.1000038,3.637298 2.8088513,-1.265045 m -1.8768087,3.650703 2.9088583,-1.43827 m 6.3253013,14.044227 3.289244,-3.297111 m -1.23758,4.943512 2.106219,-2.248062 m -0.05456,3.894485 1.983032,-2.434677 m -0.03136,4.254288 1.859823,-2.621285 m 0.15525,4.131089 1.773207,-2.67128 M 7.0634227,75.632248 11.055282,73.318153 m -2.4633964,4.466721 2.6990274,-1.674858 m -1.120573,3.74089 2.575835,-1.86148 m -1.183975,4.05072 2.402628,-1.961479 m -0.874161,4.114097 2.416022,-2.184684 m 9.770762,11.876541 2.300003,-3.983719 m 0.101663,5.023918 1.463394,-2.73468 m 0.888274,3.86145 1.340187,-2.921257 m 1.011497,4.048065 1.203568,-2.884666 m 1.198089,3.924865 1.030388,-2.984687 m 1.571282,3.678459 1.210758,-4.497101 m 1.317684,4.917686 0.720592,-3.048072 m 1.85788,3.382042 0.497372,-3.061471 m 2.067695,3.618657 0.324166,-3.161473 m 2.204288,3.582073 0.237561,-3.211505 m 15.324356,1.457435 -1.207871,-4.507881 m 3.680115,3.625839 -0.891853,-3.055244 m 3.277496,2.123192 -1.165077,-2.982048 m 3.637321,2.099998 -1.265068,-2.808845 m 3.73732,1.926796 -1.438278,-2.908844 m -21.234162,8.178637 0.0081,-4.614093 m 2.560554,4.365073 -0.08564,-3.051672 m 2.654289,2.802622 -0.345452,-3.201663 m 2.950711,3.089226 -0.482044,-3.165054 m 3.100692,2.829422 -0.705242,-3.178459 m 15.205696,-2.537056 -2.314094,-3.991852 m 4.46672,2.463394 -1.588264,-2.649048 m 3.74089,1.120598 -1.861473,-2.575836 m 4.050713,1.18396 -2.048073,-2.452629 m 4.11409,0.874168 -2.184677,-2.416023 m 3.954292,0.550957 -3.210518,-3.239235 m 4.856926,1.187568 -2.248092,-2.106209 m 3.894516,0.05454 -2.43467,-1.983009 m 4.204254,0.117942 -2.484657,-1.896408 m 4.131088,-0.155258 -2.757881,-1.823196 m 8.949043,-12.500179 -4.497131,-1.210778 m 4.967697,-1.404285 -3.048073,-0.720589 m 3.382057,-1.857876 -3.061485,-0.497375 m 3.705254,-2.017685 -3.161453,-0.324177 m 3.495436,-2.254295 -3.21147,-0.237553 m -3.5486,22.54633 -3.983703,-2.300003 m 5.110504,-0.05167 -2.821289,-1.513382 m 3.861488,-0.888275 -2.921295,-1.340202 m 4.134689,-0.961472 -3.021278,-1.166984 m 3.974861,-1.284676 -2.984665,-1.030388 M 100.08975,50.7059 95.475662,50.6978 m 4.365052,-2.560542 -3.101662,0.172249 m 2.852623,-2.740898 -3.201668,0.345447 m 3.089241,-2.950706 -3.165062,0.482059 m 2.829422,-3.100715 -3.178459,0.705261 m 2.433014,-3.214104 -4.507904,1.207879 m 3.625847,-3.680131 -2.968651,0.941861 m 1.950004,-3.377495 -2.895446,1.215065 m 2.09999,-3.637306 -2.808853,1.26506 m 1.926812,-3.737305 -2.908867,1.43826 M 85.449181,15.46412 82.246559,18.811235 m 1.237564,-4.943516 -2.106216,2.248074 m 0.05455,-3.894499 -1.983025,2.43469 m 0.03136,-4.254292 -1.859802,2.621266 M 77.515724,8.8052845 75.69252,11.563162 m 17.735565,14.281095 -3.991851,2.314099 m 2.463401,-4.466734 -2.699043,1.674869 m 1.120575,-3.740877 -2.575844,1.861468 m 1.234001,-4.137316 -2.452644,2.048071 m 0.874176,-4.114106 -2.416016,2.184678 M 75.21405,7.5918779 72.91407,11.575603 M 72.775787,6.4150934 71.349007,9.2863731 M 70.560738,5.2516937 69.120537,8.3461676 M 68.159065,4.2115026 66.905479,7.1827741 M 65.707382,3.2578993 64.67701,6.2425833 M 63.192333,2.6141241 62.031563,7.0246315 M 60.577267,2.1435547 59.856689,5.1916184 M 57.998806,1.8095791 57.501434,4.8710494 M 55.483746,1.1657884 55.159573,4.3272686 M 52.905289,0.83182091 52.667713,4.0432968 M 37.343357,2.5858622 38.55125,7.0937409 M 34.871113,3.4679041 35.812969,6.4365649 M 32.48547,4.3999639 33.650543,7.382 M 30.063231,5.1954112 31.278301,8.090848 M 27.540983,6.1640625 28.979252,9.072897 m 21.234173,-8.17864851 -0.0081,4.61411191 m -2.560557,-4.3650648 0.08564,3.051664 M 45.076126,1.392318 45.421562,4.593998 M 42.47086,1.5047686 42.952915,4.6698232 m -3.100704,-2.8294169 0.705246,3.1784545 m -15.205689,2.5370555 2.314095,3.9918557 m -12.644236,3.900459 3.297127,3.289224 m -4.943526,-1.237568 2.248079,2.106221 m -3.894485,-0.05456 2.434664,1.983017 m -4.2042966,-0.117964 2.5712866,1.946428 m -4.1310972,0.155249 2.6712872,1.773214 m -5.1286279,2.840845 2.8420052,1.484276 M 23.199127,9.0843725 24.924002,11.696808 m -3.790894,-1.033968 1.861473,2.575836 m -4.050714,-1.183974 1.961481,2.402622 m -4.11409,-0.874152 2.184662,2.416019 M 7.0994067,25.769955 11.083109,28.069952 M 55.25642,24.35951 v 0" /></g></svg>
