<?xml version="1.0" encoding="UTF-8" standalone="no"?>
<svg
   xmlns:dc="http://purl.org/dc/elements/1.1/"
   xmlns:cc="http://creativecommons.org/ns#"
   xmlns:rdf="http://www.w3.org/1999/02/22-rdf-syntax-ns#"
   xmlns:svg="http://www.w3.org/2000/svg"
   xmlns="http://www.w3.org/2000/svg"
   id="svg3777"
   viewBox="0 0 240 1000"
   version="1.1">
  <metadata
     id="metadata3783">
    <rdf:RDF>
      <cc:Work
         rdf:about="">
        <dc:format>image/svg+xml</dc:format>
        <dc:type
           rdf:resource="http://purl.org/dc/dcmitype/StillImage" />
        <dc:title></dc:title>
      </cc:Work>
    </rdf:RDF>
  </metadata>
  <defs
     id="defs3781" />
  <g
     id="g3775"
     transform="matrix(1 0 0 -1 0 800)">
    <path
       id="path3773"
       d="M221 821v-60h-116v-278c19 18 38 27 59 27c35 0 53 -27 53 -82v-347c0 -61 -32 -92 -95 -92c-62 0 -93 32 -93 95v296h72v-299c0 -20 7 -30 21 -30c15 0 22 10 22 30v337c0 19 -6 28 -18 28c-7 0 -13 -5 -20 -16h-74v391h189z"
       fill="currentColor" />
  </g>
</svg>
