<?xml version="1.0" encoding="UTF-8" standalone="no"?>
<svg
   xmlns:dc="http://purl.org/dc/elements/1.1/"
   xmlns:cc="http://creativecommons.org/ns#"
   xmlns:rdf="http://www.w3.org/1999/02/22-rdf-syntax-ns#"
   xmlns:svg="http://www.w3.org/2000/svg"
   xmlns="http://www.w3.org/2000/svg"
   id="svg6"
   viewBox="0 0 249 1000"
   version="1.1">
  <metadata
     id="metadata12">
    <rdf:RDF>
      <cc:Work
         rdf:about="">
        <dc:format>image/svg+xml</dc:format>
        <dc:type
           rdf:resource="http://purl.org/dc/dcmitype/StillImage" />
        <dc:title></dc:title>
      </cc:Work>
    </rdf:RDF>
  </metadata>
  <defs
     id="defs10" />
  <g
     id="g4"
     transform="matrix(1 0 0 -1 0 800)">
    <path
       id="path2"
       d="M220 721v-637c0 -63 -32 -95 -96 -95c-63 0 -95 32 -95 95v217h74v-220c0 -20 7 -30 21 -30c15 0 22 10 22 30v278c-15 -15 -32 -22 -53 -22c-40 0 -64 31 -64 70v314c0 63 32 95 95 95c64 0 96 -32 96 -95zM146 431v294c0 19 -7 28 -22 28c-14 0 -21 -9 -21 -28v-295 c0 -18 7 -27 21 -27c15 0 22 9 22 28z"
       fill="currentColor" />
  </g>
</svg>
