<?xml version="1.0" encoding="UTF-8" standalone="no"?>
<!-- Created with Inkscape (http://www.inkscape.org/) -->

<svg
   version="1.1"
   id="svg1760"
   width="554"
   height="186"
   viewBox="0 0 554 186"
   xmlns="http://www.w3.org/2000/svg"
   xmlns:svg="http://www.w3.org/2000/svg">
  <defs
     id="defs1764" />
  <g
     id="layer1"
     style="display:inline">
    <g
       id="g1766"
       transform="translate(-0.80085388,0.48721178)">
      <path
         style="fill:#000000;stroke-width:0.666667"
         d="m 115.46946,180.95818 c -1.10377,-2.6706 -3.38901,-9.56291 -5.07831,-15.31625 -3.33458,-11.35683 -5.0301,-15.80809 -6.46673,-16.97722 -0.70462,-0.57343 -2.58879,-0.2392 -7.924417,1.40567 -8.62708,2.65957 -11.87409,4.28678 -14.4828,7.25794 -2.17663,2.47904 -3.05079,6.04425 -3.92052,15.98965 -0.5261,6.01593 -1.4568,7.44589 -4.45581,6.84609 -1.08581,-0.21716 -2.42547,-0.39484 -2.97701,-0.39484 -0.83445,0 -0.93336,-0.7555 -0.58912,-4.5 3.94176,-42.87748 9.35626,-94.225033 10.49646,-99.541593 0.60085,-2.80169 0.94088,-3.26167 2.69608,-3.64718 4.40729,-0.968 7.72667,5.20353 17.467107,32.475613 7.52714,21.07514 9.66606,26.61382 10.67884,27.65261 0.5697,0.58433 2.28646,0.29751 7.04004,-1.17623 14.79355,-4.58638 19.75567,-3.65684 18.16832,3.40344 -0.57376,2.552 -0.75632,2.59398 -7.45492,1.71408 -2.27513,-0.29886 -4.36669,0.0571 -8.65625,1.47291 -8.63571,2.85042 -8.48714,1.59203 -2.81435,23.83722 l 4.74022,18.58817 -1.30954,2.11887 c -2.5848,4.18229 -2.96599,4.09294 -5.15729,-1.20895 z M 93.462263,143.86361 c 2.31242,-1.10535 5.21651,-3.05635 6.45354,-4.33555 l 2.249127,-2.32582 -2.796767,-10.54984 c -3.29208,-12.41827 -7.67801,-26.19166 -9.46276,-29.716523 -1.34675,-2.65982 -2.91518,-3.25566 -3.5097,-1.33334 -0.41,1.32567 -4.3957,45.672193 -4.3957,48.908253 v 2.11163 l 3.62893,-0.37454 c 1.99591,-0.206 5.52091,-1.27892 7.83333,-2.38427 z M 15.111111,178.6581 c -0.916472,-0.91646 -0.39352,-2.84894 1.043298,-3.85534 0.818259,-0.57312 7.019186,-2.86189 13.779838,-5.08614 17.698138,-5.82267 25.752416,-10.13378 25.268526,-13.52516 -0.283667,-1.9881 -2.733679,-2.64793 -17.541739,-4.72427 C 16.575529,148.51064 9.7549417,146.36996 5.3175047,141.316 2.3434517,137.92874 1.5927257,134.56158 2.5573667,128.93622 5.4280317,112.1958 26.485131,95.111047 45.253711,94.294417 c 4.375686,-0.19039 5.774728,1.00402 5.139874,4.38808 -0.858651,4.577013 -6.519456,6.657683 -10.211671,3.753383 -0.932283,-0.73333 -2.437608,-1.33333 -3.345168,-1.33333 -3.30374,0 -9.714613,4.17325 -15.859835,10.32419 -16.8536923,16.86936 -16.2246523,28.99623 1.689756,32.57573 2.75,0.54948 9.65,1.48041 15.333333,2.06872 20.057132,2.07623 23.765439,3.64061 25.030073,10.55906 0.42678,2.33479 0.26203,2.71639 -2.15863,5 -3.52726,3.32756 -11.28384,7.64455 -20.084982,11.17846 -11.448236,4.5968 -24.055696,7.46905 -25.67535,5.84939 z m 237.880719,-8.90211 c -0.23112,-0.37394 -1.61963,-12.74894 -3.0856,-27.5 -1.46596,-14.75106 -2.90747,-27.06799 -3.20334,-27.37097 -0.29588,-0.30298 -1.81959,2.77936 -3.38604,6.84964 -5.31878,13.82041 -11.70115,22.388 -19.53545,26.22408 -3.07235,1.50438 -4.57807,1.80862 -8.9061,1.79951 -6.21973,-0.0131 -9.28598,-1.43126 -12.66054,-5.85561 -4.28554,-5.61872 -5.20573,-11.77593 -6.19715,-41.46676 -0.37342,-11.183343 -0.86841,-23.443873 -1.09997,-27.245623 l -0.42101,-6.9123 -3.08164,0.43627 c -4.28778,0.60702 -19.92376,2.20923 -26.82434,2.74867 -3.15848,0.2469 -6.01837,0.64183 -6.3553,0.87762 -1.1242,0.78671 0.30922,21.66262 2.76241,40.230943 3.53675,26.7698 4.27534,33.3292 4.7581,42.25633 0.39705,7.34215 0.33041,8.09901 -0.74953,8.51341 -1.353,0.5192 -5.52183,-0.12138 -6.01835,-0.92477 -1.21852,-1.97161 -3.90454,-23.10207 -6.64993,-52.31388 -2.34948,-24.999293 -3.57793,-34.527733 -4.52943,-35.132393 -1.70333,-1.08243 -8.93554,-0.44836 -19.98965,1.75257 -6.3171,1.25777 -13.43564,2.46819 -15.81897,2.68982 -6.86707,0.63859 -9.67547,-1.62591 -6.53409,-5.26865 1.8778,-2.1775 2.93956,-2.42427 23.15418,-5.38152 8.77732,-1.28405 16.414,-2.50934 16.97042,-2.72286 0.55642,-0.21351 1.3479,-1.40699 1.75884,-2.65217 0.41094,-1.24517 1.50752,-2.86204 2.43682,-3.59304 2.01962,-1.58862 3.39972,-1.09542 6.68796,2.39008 2.03185,2.15373 2.32024,2.25103 5.66667,1.91178 18.00255,-1.82502 29.76863,-3.12452 30.96809,-3.42025 0.79323,-0.19557 1.62065,-1.06645 1.83871,-1.93528 0.29025,-1.15643 1.02023,-1.69671 2.72444,-2.01642 1.89879,-0.35621 6.76979,0.04 7.07157,0.5752 0.0423,0.0751 0.27075,16.63646 0.50764,36.80312 0.41337,35.192113 0.48624,36.787323 1.81186,39.666683 1.69259,3.67644 5.48884,7.12632 8.45388,7.68257 5.20861,0.97714 11.18662,-3.84521 15.59428,-12.57962 4.89879,-9.70765 7.65368,-20.88461 13.24742,-53.746433 1.71421,-10.07058 3.37138,-18.97989 3.6826,-19.79847 0.88188,-2.31951 3.57002,-3.81299 5.24734,-2.91531 4.17673,2.23532 4.80301,9.12387 3.04188,33.45828 -1.28952,17.817883 -1.10195,31.328153 0.66036,47.565643 1.66269,15.31962 2.45298,27.77282 1.9805,31.20819 -0.36794,2.67521 -0.80412,3.44904 -2.54111,4.5082 -2.40443,1.46613 -2.85639,1.54549 -3.43843,0.60372 z m 14.3415,-54.21179 c 0,-19.190443 -0.19905,-43.075583 -0.44234,-53.078123 l -0.44235,-18.18642 4.27568,0.47894 c 2.35163,0.26341 4.57568,0.76342 4.94235,1.11114 0.36666,0.34771 0.77304,3.18188 0.90307,6.29815 0.13002,3.11627 0.44558,5.5764 0.70123,5.46697 0.25566,-0.10944 3.89928,-1.93541 8.09694,-4.05771 12.35372,-6.24595 19.96422,-7.10298 30.6875,-3.45576 12.9664,4.41016 14.26798,10.08235 4.51336,19.66883 -2.70512,2.65849 -10.8595,8.55043 -22.56877,16.30706 -10.08333,6.67956 -18.87912,12.75988 -19.54619,13.51182 -1.20434,1.357583 -1.10827,1.421043 13.66666,9.026983 8.18374,4.21289 19.82953,10.1663 25.87953,13.2298 9.50427,4.81262 11.02679,5.79962 11.19699,7.25864 0.12949,1.11008 -0.36448,2.21611 -1.44176,3.22816 l -1.63874,1.53952 -6.3707,-2.72186 c -3.50388,-1.49702 -14.91682,-6.8006 -25.36209,-11.78573 -10.44527,-4.98513 -19.30466,-8.87025 -19.68755,-8.63362 C 274.2379,111.03421 274,117.88855 274,130.80856 v 19.62732 h -3.33333 -3.33334 z m 12.84998,-26.860323 c 21.22702,-10.65898 37.15002,-22.04646 37.15002,-26.56816 0,-3.74891 -4.92315,-6.34638 -12,-6.33121 -8.55857,0.0183 -20.60114,4.18622 -25.6678,8.8835 -2.924,2.71083 -2.99872,2.88465 -3.6262,8.43454 -1.03323,9.13882 -1.57902,17.99999 -1.10868,17.99999 0.23978,0 2.60348,-1.0884 5.25266,-2.41866 z M 385.76175,143.2564 c -0.94956,-1.53642 -3.58078,-9.30481 -7.12512,-21.0361 -3.7732,-12.48884 -5.85322,-17.88822 -7.21544,-18.73012 -0.80927,-0.50015 -12.09735,2.93906 -17.26239,5.25944 -2.32783,1.04578 -5.17145,2.97888 -6.4281,4.36984 -2.54982,2.82235 -3.21771,5.25722 -4.47558,16.31642 -0.45875,4.03334 -1.15383,7.55374 -1.54461,7.82313 -0.39078,0.26939 -1.91051,0.48979 -3.37718,0.48979 -1.46666,0 -3.01285,-0.2204 -3.43597,-0.48979 -0.57169,-0.36398 -0.18833,-6.56896 1.49249,-24.15646 4.47608,-46.836233 8.99668,-87.625613 10.00158,-90.244333 0.59866,-1.56008 3.18303,-2.03082 5.39275,-0.98227 2.54311,1.20674 7.37015,10.97156 12.47979,25.24593 7.93451,22.16593 13.83852,37.86413 14.61062,38.84825 0.69772,0.88931 1.73926,0.73971 8.74268,-1.25578 4.37282,-1.24595 9.81024,-2.45589 12.08315,-2.68876 3.70343,-0.37943 4.28779,-0.26817 5.62733,1.07137 1.23792,1.23792 1.43704,2.00681 1.15886,4.47481 -0.47238,4.19099 -1.08802,4.59031 -5.06923,3.28813 -1.83401,-0.59988 -3.72821,-1.09232 -4.20931,-1.09432 -1.92156,-0.008 -15.82504,4.91253 -16.13055,5.70868 -0.37567,0.97898 2.05942,11.738513 6.78649,29.986323 l 3.28768,12.69136 -1.9457,2.80864 c -1.89688,2.73816 -2.79916,3.33959 -3.44424,2.29582 z m -28.87903,-43.03955 c 5.54953,-2.014373 10.18453,-4.755133 11.53997,-6.823793 1.38316,-2.11097 0.78776,-5.34784 -4.10023,-22.29051 -5.78811,-20.06264 -9.00503,-27.60279 -10.93932,-25.64074 -0.34743,0.3524 -0.95739,3.19074 -1.35549,6.3074 C 350.78055,61.532727 348,93.141037 348,97.554097 v 4.215123 h 2.30301 c 1.26665,0 4.22752,-0.69856 6.57971,-1.55237 z m 95.89329,15.71903 c -1.57544,-8.43437 -3.52929,-25.379803 -6.82207,-59.166673 -1.1435,-11.73333 -2.42593,-23.43333 -2.84985,-26 l -0.77076,-4.66666 -3.00038,-0.19641 c -1.65021,-0.10802 -9.15021,0.98994 -16.66667,2.43992 -20.73053,3.99906 -26.48011,4.26238 -28.07317,1.28571 -0.58009,-1.0839 -0.4645,-1.72013 0.5655,-3.11247 0.71205,-0.96255 2.01766,-2.10442 2.90134,-2.5375 0.8837,-0.43307 10.13115,-2.01539 20.5499,-3.51627 10.41874,-1.50087 19.68466,-3.09653 20.59093,-3.54592 0.91744,-0.45493 1.9768,-1.82356 2.39015,-3.08795 0.93514,-2.86045 3.72544,-5.0359401 5.66824,-4.4193201 0.78067,0.24778 2.48212,1.7218701 3.78102,3.2757601 l 2.36162,2.82525 18.13243,-1.84537 c 9.97283,-1.01495 18.80743,-2.0131 19.63243,-2.2181 1.03626,-0.2575 1.5,-0.86826 1.5,-1.9755501 0,-2.04594 3.05058,-5.705116 4.75623,-5.705116 2.55631,0 6.91761,6.2440661 6.63547,9.4999961 -0.0874,1.00834 0.039,1.83334 0.28082,1.83334 0.24181,0 4.28828,-1.79958 8.99214,-3.99907 10.27457,-4.8043001 20.85108,-8.4224661 26.41549,-9.0365951 4.23651,-0.467573 5.27837,-0.0077 4.51129,1.991306 -0.22709,0.591782 -9.42449,5.597559 -20.43866,11.1239491 l -20.02578,10.04798 0.4756,13.10288 c 0.26158,7.20659 0.683,14.20702 0.9365,15.55652 l 0.4609,2.45365 L 516,50.543907 c 5.68333,-3.1896 12.90823,-7.37855 16.05533,-9.30878 5.67784,-3.48242 7.40522,-3.83328 8.23438,-1.67254 1.15991,3.02268 -5.67652,8.55045 -20.46834,16.55018 -3.94824,2.13529 -8.37324,4.9049 -9.83333,6.15468 l -2.65471,2.27233 v 13.63564 c 0,11.96402 0.13263,13.68653 1.08184,14.05078 1.71972,0.65992 8.88517,-3.24124 22.98872,-12.51596 7.1888,-4.72748 14.20641,-9.07 15.59468,-9.65006 4.6231,-1.93165 7.79345,0.38747 4.85361,3.55044 -3.24349,3.48964 -30.2973,21.31498 -40.36849,26.598163 -5.93233,3.112 -10.05765,3.75265 -12.52294,1.94477 -1.23448,-0.90529 -1.28375,-1.75729 -1.06966,-18.500013 0.28656,-22.4099 -1.21278,-54.02476 -2.97768,-62.78734 -0.34872,-1.73138 -0.57254,-1.86473 -2.48168,-1.4786 -4.37663,0.8852 -11.60741,1.76234 -22.33299,2.70913 -6.10431,0.53886 -12.41377,1.15999 -14.02104,1.3803 l -2.9223,0.40056 0.35613,13.44581 c 0.27883,10.52675 0.94734,17.78778 3.07928,33.44582 3.13504,23.0251 4.74252,38.855003 4.74252,46.702423 0,6.08846 -0.1528,6.29758 -4.6016,6.29758 h -2.49256 z"
         id="path1850" />
    </g>
  </g>
  <g
     id="layer2"
     style="display:inline">
    <rect
       style="fill:#000000;fill-opacity:0;fill-rule:evenodd"
       id="rect245"
       width="554.16473"
       height="187.39276"
       x="0"
       y="-0.61642355" />
  </g>
</svg>
