<?xml version="1.0" encoding="UTF-8"?>
<!-- Created with Inkscape (http://www.inkscape.org/) -->
<svg width="554" height="186.67" version="1.1" viewBox="0 0 554 186.67" xmlns="http://www.w3.org/2000/svg">
 <path d="m115.47 180.96c-1.1038-2.6706-3.389-9.5629-5.0783-15.316-3.3346-11.357-5.0301-15.808-6.4667-16.977-0.70462-0.57343-2.5888-0.2392-7.9244 1.4057-8.6271 2.6596-11.874 4.2868-14.483 7.2579-2.1766 2.479-3.0508 6.0442-3.9205 15.99-0.5261 6.0159-1.4568 7.4459-4.4558 6.8461-1.0858-0.21716-2.4255-0.39484-2.977-0.39484-0.83445 0-0.93336-0.7555-0.58912-4.5 3.9418-42.877 9.3563-94.225 10.496-99.542 0.60085-2.8017 0.94088-3.2617 2.6961-3.6472 4.4073-0.968 7.7267 5.2035 17.467 32.476 7.5271 21.075 9.6661 26.614 10.679 27.653 0.5697 0.58433 2.2865 0.29751 7.04-1.1762 14.794-4.5864 19.756-3.6568 18.168 3.4034-0.57376 2.552-0.75632 2.594-7.4549 1.7141-2.2751-0.29886-4.3667 0.0571-8.6562 1.4729-8.6357 2.8504-8.4871 1.592-2.8144 23.837l4.7402 18.588-1.3095 2.1189c-2.5848 4.1823-2.966 4.0929-5.1573-1.209zm-22.007-37.095c2.3124-1.1054 5.2165-3.0564 6.4535-4.3356l2.2491-2.3258-2.7968-10.55c-3.2921-12.418-7.678-26.192-9.4628-29.717-1.3468-2.6598-2.9152-3.2557-3.5097-1.3333-0.41 1.3257-4.3957 45.672-4.3957 48.908v2.1116l3.6289-0.37454c1.9959-0.206 5.5209-1.2789 7.8333-2.3843zm-78.351 34.794c-0.91647-0.91646-0.39352-2.8489 1.0433-3.8553 0.81826-0.57312 7.0192-2.8619 13.78-5.0861 17.698-5.8227 25.752-10.134 25.269-13.525-0.28367-1.9881-2.7337-2.6479-17.542-4.7243-21.086-2.9566-27.906-5.0972-32.344-10.151-2.9741-3.3873-3.7248-6.7544-2.7601-12.38 2.8707-16.74 23.928-33.825 42.696-34.642 4.3757-0.19039 5.7747 1.004 5.1399 4.3881-0.85865 4.577-6.5195 6.6577-10.212 3.7534-0.93228-0.73333-2.4376-1.3333-3.3452-1.3333-3.3037 0-9.7146 4.1732-15.86 10.324-16.854 16.869-16.225 28.996 1.6898 32.576 2.75 0.54948 9.65 1.4804 15.333 2.0687 20.057 2.0762 23.765 3.6406 25.03 10.559 0.42678 2.3348 0.26203 2.7164-2.1586 5-3.5273 3.3276-11.284 7.6446-20.085 11.178-11.448 4.5968-24.056 7.469-25.675 5.8494zm237.88-8.9021c-0.23112-0.37394-1.6196-12.749-3.0856-27.5-1.466-14.751-2.9075-27.068-3.2033-27.371-0.29588-0.30298-1.8196 2.7794-3.386 6.8496-5.3188 13.82-11.701 22.388-19.535 26.224-3.0724 1.5044-4.5781 1.8086-8.9061 1.7995-6.2197-0.0131-9.286-1.4313-12.661-5.8556-4.2855-5.6187-5.2057-11.776-6.1972-41.467-0.37342-11.183-0.86841-23.444-1.1-27.246l-0.42101-6.9123-3.0816 0.43627c-4.2878 0.60702-19.924 2.2092-26.824 2.7487-3.1585 0.2469-6.0184 0.64183-6.3553 0.87762-1.1242 0.78671 0.30922 21.663 2.7624 40.231 3.5368 26.77 4.2753 33.329 4.7581 42.256 0.39705 7.3422 0.33041 8.099-0.74953 8.5134-1.353 0.5192-5.5218-0.12138-6.0184-0.92477-1.2185-1.9716-3.9045-23.102-6.6499-52.314-2.3495-24.999-3.5779-34.528-4.5294-35.132-1.7033-1.0824-8.9355-0.44836-19.99 1.7526-6.3171 1.2578-13.436 2.4682-15.819 2.6898-6.8671 0.63859-9.6755-1.6259-6.5341-5.2686 1.8778-2.1775 2.9396-2.4243 23.154-5.3815 8.7773-1.284 16.414-2.5093 16.97-2.7229 0.55642-0.21351 1.3479-1.407 1.7588-2.6522 0.41094-1.2452 1.5075-2.862 2.4368-3.593 2.0196-1.5886 3.3997-1.0954 6.688 2.3901 2.0318 2.1537 2.3202 2.251 5.6667 1.9118 18.003-1.825 29.769-3.1245 30.968-3.4202 0.79323-0.19557 1.6206-1.0664 1.8387-1.9353 0.29025-1.1564 1.0202-1.6967 2.7244-2.0164 1.8988-0.35621 6.7698 0.04 7.0716 0.5752 0.0423 0.0751 0.27075 16.636 0.50764 36.803 0.41337 35.192 0.48624 36.787 1.8119 39.667 1.6926 3.6764 5.4888 7.1263 8.4539 7.6826 5.2086 0.97714 11.187-3.8452 15.594-12.58 4.8988-9.7076 7.6537-20.885 13.247-53.746 1.7142-10.071 3.3714-18.98 3.6826-19.798 0.88188-2.3195 3.57-3.813 5.2473-2.9153 4.1767 2.2353 4.803 9.1239 3.0419 33.458-1.2895 17.818-1.102 31.328 0.66036 47.566 1.6627 15.32 2.453 27.773 1.9805 31.208-0.36794 2.6752-0.80412 3.449-2.5411 4.5082-2.4044 1.4661-2.8564 1.5455-3.4384 0.60372zm14.342-54.212c0-19.19-0.19905-43.076-0.44234-53.078l-0.44235-18.186 4.2757 0.47894c2.3516 0.26341 4.5757 0.76342 4.9424 1.1111 0.36666 0.34771 0.77304 3.1819 0.90307 6.2982 0.13002 3.1163 0.44558 5.5764 0.70123 5.467 0.25566-0.10944 3.8993-1.9354 8.0969-4.0577 12.354-6.246 19.964-7.103 30.688-3.4558 12.966 4.4102 14.268 10.082 4.5134 19.669-2.7051 2.6585-10.86 8.5504-22.569 16.307-10.083 6.6796-18.879 12.76-19.546 13.512-1.2043 1.3576-1.1083 1.421 13.667 9.027 8.1837 4.2129 19.83 10.166 25.88 13.23 9.5043 4.8126 11.027 5.7996 11.197 7.2586 0.12949 1.1101-0.36448 2.2161-1.4418 3.2282l-1.6387 1.5395-6.3707-2.7219c-3.5039-1.497-14.917-6.8006-25.362-11.786s-19.305-8.8702-19.688-8.6336c-0.45825 0.28322-0.69615 7.1376-0.69615 20.058v19.627h-6.6667zm12.85-26.86c21.227-10.659 37.15-22.046 37.15-26.568 0-3.7489-4.9232-6.3464-12-6.3312-8.5586 0.0183-20.601 4.1862-25.668 8.8835-2.924 2.7108-2.9987 2.8846-3.6262 8.4345-1.0332 9.1388-1.579 18-1.1087 18 0.23978 0 2.6035-1.0884 5.2527-2.4187zm105.58 54.573c-0.94956-1.5364-3.5808-9.3048-7.1251-21.036-3.7732-12.489-5.8532-17.888-7.2154-18.73-0.80927-0.50015-12.097 2.9391-17.262 5.2594-2.3278 1.0458-5.1714 2.9789-6.4281 4.3698-2.5498 2.8224-3.2177 5.2572-4.4756 16.316-0.45875 4.0333-1.1538 7.5537-1.5446 7.8231s-1.9105 0.48979-3.3772 0.48979c-1.4667 0-3.0128-0.2204-3.436-0.48979-0.57169-0.36398-0.18833-6.569 1.4925-24.156 4.4761-46.836 8.9967-87.626 10.002-90.244 0.59866-1.5601 3.183-2.0308 5.3928-0.98227 2.5431 1.2067 7.3702 10.972 12.48 25.246 7.9345 22.166 13.839 37.864 14.611 38.848 0.69772 0.88931 1.7393 0.73971 8.7427-1.2558 4.3728-1.246 9.8102-2.4559 12.083-2.6888 3.7034-0.37943 4.2878-0.26817 5.6273 1.0714 1.2379 1.2379 1.437 2.0068 1.1589 4.4748-0.47238 4.191-1.088 4.5903-5.0692 3.2881-1.834-0.59988-3.7282-1.0923-4.2093-1.0943-1.9216-8e-3 -15.825 4.9125-16.131 5.7087-0.37567 0.97898 2.0594 11.739 6.7865 29.986l3.2877 12.691-1.9457 2.8086c-1.8969 2.7382-2.7992 3.3396-3.4442 2.2958zm-28.879-43.04c5.5495-2.0144 10.185-4.7551 11.54-6.8238 1.3832-2.111 0.78776-5.3478-4.1002-22.291-5.7881-20.063-9.005-27.603-10.939-25.641-0.34743 0.3524-0.95739 3.1907-1.3555 6.3074-1.2471 9.7635-4.0276 41.372-4.0276 45.785v4.2151h2.303c1.2666 0 4.2275-0.69856 6.5797-1.5524zm95.893 15.719c-1.5754-8.4344-3.5293-25.38-6.8221-59.167-1.1435-11.733-2.4259-23.433-2.8498-26l-0.77076-4.6667-3.0004-0.19641c-1.6502-0.10802-9.1502 0.98994-16.667 2.4399-20.731 3.9991-26.48 4.2624-28.073 1.2857-0.58009-1.0839-0.4645-1.7201 0.5655-3.1125 0.71205-0.96255 2.0177-2.1044 2.9013-2.5375 0.8837-0.43307 10.131-2.0154 20.55-3.5163 10.419-1.5009 19.685-3.0965 20.591-3.5459 0.91744-0.45493 1.9768-1.8236 2.3902-3.088 0.93514-2.8604 3.7254-5.0359 5.6682-4.4193 0.78067 0.24778 2.4821 1.7219 3.781 3.2758l2.3616 2.8252 18.132-1.8454c9.9728-1.015 18.807-2.0131 19.632-2.2181 1.0363-0.2575 1.5-0.86826 1.5-1.9756 0-2.0459 3.0506-5.7051 4.7562-5.7051 2.5563 0 6.9176 6.2441 6.6355 9.5-0.0874 1.0083 0.039 1.8333 0.28082 1.8333 0.24181 0 4.2883-1.7996 8.9921-3.9991 10.275-4.8043 20.851-8.4225 26.415-9.0366 4.2365-0.46757 5.2784-0.0077 4.5113 1.9913-0.22709 0.59178-9.4245 5.5976-20.439 11.124l-20.026 10.048 0.4756 13.103c0.26158 7.2066 0.683 14.207 0.9365 15.557l0.4609 2.4536 10.333-5.7993c5.6833-3.1896 12.908-7.3786 16.055-9.3088 5.6778-3.4824 7.4052-3.8333 8.2344-1.6725 1.1599 3.0227-5.6765 8.5504-20.468 16.55-3.9482 2.1353-8.3732 4.9049-9.8333 6.1547l-2.6547 2.2723v13.636c0 11.964 0.13263 13.687 1.0818 14.051 1.7197 0.65992 8.8852-3.2412 22.989-12.516 7.1888-4.7275 14.206-9.07 15.595-9.6501 4.6231-1.9316 7.7934 0.38747 4.8536 3.5504-3.2435 3.4896-30.297 21.315-40.368 26.598-5.9323 3.112-10.058 3.7526-12.523 1.9448-1.2345-0.90529-1.2838-1.7573-1.0697-18.5 0.28656-22.41-1.2128-54.025-2.9777-62.787-0.34872-1.7314-0.57254-1.8647-2.4817-1.4786-4.3766 0.8852-11.607 1.7623-22.333 2.7091-6.1043 0.53886-12.414 1.16-14.021 1.3803l-2.9223 0.40056 0.35613 13.446c0.27883 10.527 0.94734 17.788 3.0793 33.446 3.135 23.025 4.7425 38.855 4.7425 46.702 0 6.0885-0.1528 6.2976-4.6016 6.2976h-2.4926z" stroke-width=".66667"/>
</svg>
