<?xml version="1.0" encoding="UTF-8" standalone="no"?>
<svg
   xmlns:dc="http://purl.org/dc/elements/1.1/"
   xmlns:cc="http://creativecommons.org/ns#"
   xmlns:rdf="http://www.w3.org/1999/02/22-rdf-syntax-ns#"
   xmlns:svg="http://www.w3.org/2000/svg"
   xmlns="http://www.w3.org/2000/svg"
   id="svg6"
   viewBox="0 0 247 1000"
   version="1.1">
  <metadata
     id="metadata12">
    <rdf:RDF>
      <cc:Work
         rdf:about="">
        <dc:format>image/svg+xml</dc:format>
        <dc:type
           rdf:resource="http://purl.org/dc/dcmitype/StillImage" />
        <dc:title></dc:title>
      </cc:Work>
    </rdf:RDF>
  </metadata>
  <defs
     id="defs10" />
  <g
     id="g4"
     transform="matrix(1 0 0 -1 0 800)">
    <path
       id="path2"
       d="M217 319v-235c0 -63 -31 -95 -93 -95c-63 0 -95 32 -95 95v235h74v-238c0 -20 7 -30 21 -30c13 0 20 10 20 30v234c0 19 -14 32 -41 41v57c27 11 41 25 41 43v276c0 20 -7 30 -20 30c-14 0 -21 -10 -21 -30v-278h-74v272c0 63 32 95 95 95c62 0 93 -32 93 -95v-263 c0 -46 -18 -72 -55 -77c43 -7 55 -22 55 -67z"
       fill="currentColor" />
  </g>
</svg>
