<?xml version="1.0" encoding="UTF-8" standalone="no"?>
<svg
   xmlns:dc="http://purl.org/dc/elements/1.1/"
   xmlns:cc="http://creativecommons.org/ns#"
   xmlns:rdf="http://www.w3.org/1999/02/22-rdf-syntax-ns#"
   xmlns:svg="http://www.w3.org/2000/svg"
   xmlns="http://www.w3.org/2000/svg"
   id="svg6"
   viewBox="0 0 240 1000"
   version="1.1">
  <metadata
     id="metadata12">
    <rdf:RDF>
      <cc:Work
         rdf:about="">
        <dc:format>image/svg+xml</dc:format>
        <dc:type
           rdf:resource="http://purl.org/dc/dcmitype/StillImage" />
        <dc:title></dc:title>
      </cc:Work>
    </rdf:RDF>
  </metadata>
  <defs
     id="defs10" />
  <g
     id="g4"
     transform="matrix(1 0 0 -1 0 800)">
    <path
       id="path2"
       d="M223 675c-1 -37 -10 -106 -30 -205c-10 -47 -46 -174 -87 -411h108v-59h-190v5c0 20 10 78 32 177l61 278c21 110 32 186 32 229v41c0 18 -7 27 -22 27c-14 0 -21 -9 -21 -27v-94h-74v87c0 63 33 95 98 95c77 0 93 -16 93 -143z"
       fill="currentColor" />
  </g>
</svg>
