<?xml version="1.0" encoding="UTF-8" standalone="no"?>
<svg
   xmlns:dc="http://purl.org/dc/elements/1.1/"
   xmlns:cc="http://creativecommons.org/ns#"
   xmlns:rdf="http://www.w3.org/1999/02/22-rdf-syntax-ns#"
   xmlns:svg="http://www.w3.org/2000/svg"
   xmlns="http://www.w3.org/2000/svg"
   id="svg6"
   viewBox="0 0 249 1000"
   version="1.1">
  <metadata
     id="metadata12">
    <rdf:RDF>
      <cc:Work
         rdf:about="">
        <dc:format>image/svg+xml</dc:format>
        <dc:type
           rdf:resource="http://purl.org/dc/dcmitype/StillImage" />
        <dc:title></dc:title>
      </cc:Work>
    </rdf:RDF>
  </metadata>
  <defs
     id="defs10" />
  <g
     id="g4"
     transform="matrix(1 0 0 -1 0 800)">
    <path
       id="path2"
       d="M220 720v-636c0 -63 -32 -95 -96 -95c-63 0 -95 32 -95 95v636c0 63 32 94 95 94c64 0 96 -31 96 -94zM146 80v648c0 18 -7 27 -22 27c-14 0 -21 -9 -21 -27v-648c0 -19 7 -29 21 -29c15 0 22 10 22 29z"
       fill="currentColor" />
  </g>
</svg>
